<svg version="1.1" viewBox="0.0 0.0 274.1916010498688 272.87664041994753" fill="none" stroke="none" stroke-linecap="square" stroke-miterlimit="10" xmlns:xlink="http://www.w3.org/1999/xlink" xmlns="http://www.w3.org/2000/svg"><clipPath id="p.0"><path d="m0 0l274.1916 0l0 272.87665l-274.1916 0l0 -272.87665z" clip-rule="nonzero"/></clipPath><g clip-path="url(#p.0)"><path fill="#000000" fill-opacity="0.0" d="m0 0l274.1916 0l0 272.87665l-274.1916 0z" fill-rule="evenodd"/><path fill="#49ebd0" d="m0 89.881645l82.99213 0l0 178.20471l-82.99213 0z" fill-rule="evenodd"/><path fill="#000000" d="m22.90799 151.94026q-0.953125 0 -1.671875 -0.34375q-0.703125 -0.34375 -1.125 -0.953125q-0.40625 -0.609375 -0.5 -1.375l1.09375 0q0.15625 0.765625 0.734375 1.25q0.59375 0.46875 1.484375 0.46875q0.671875 0 1.140625 -0.3125q0.484375 -0.3125 0.734375 -0.84375q0.265625 -0.546875 0.265625 -1.1875q0 -1.046875 -0.59375 -1.6875q-0.578125 -0.640625 -1.5 -0.640625q-0.78125 0 -1.328125 0.359375q-0.546875 0.34375 -0.796875 0.890625l-1.0625 0l0.796875 -5.109375l4.890625 0l0 0.96875l-4.03125 0l-0.546875 2.84375q0.328125 -0.390625 0.890625 -0.640625q0.5625 -0.25 1.296875 -0.25q0.921875 0 1.609375 0.421875q0.6875 0.421875 1.0625 1.15625q0.390625 0.734375 0.390625 1.671875q0 0.890625 -0.375 1.65625q-0.375 0.75 -1.109375 1.203125q-0.71875 0.453125 -1.75 0.453125zm9.219284 -0.15625l0 -2.0l-4.734375 0l0 -0.859375l4.53125 -6.46875l1.296875 0l0 6.34375l1.390625 0l0 0.984375l-1.390625 0l0 2.0l-1.09375 0zm-3.5 -2.984375l3.546875 0l0 -5.109375l-3.546875 5.109375zm10.500992 3.140625q-0.953125 0 -1.671875 -0.34375q-0.703125 -0.34375 -1.125 -0.953125q-0.40625 -0.609375 -0.5 -1.375l1.09375 0q0.15625 0.765625 0.734375 1.25q0.59375 0.46875 1.484375 0.46875q0.671875 0 1.140625 -0.3125q0.484375 -0.3125 0.734375 -0.84375q0.265625 -0.546875 0.265625 -1.1875q0 -1.046875 -0.59375 -1.6875q-0.578125 -0.640625 -1.5 -0.640625q-0.78125 0 -1.328125 0.359375q-0.546875 0.34375 -0.796875 0.890625l-1.0625 0l0.796875 -5.109375l4.890625 0l0 0.96875l-4.03125 0l-0.546875 2.84375q0.328125 -0.390625 0.890625 -0.640625q0.5625 -0.25 1.296875 -0.25q0.921875 0 1.609375 0.421875q0.6875 0.421875 1.0625 1.15625q0.390625 0.734375 0.390625 1.671875q0 0.890625 -0.375 1.65625q-0.375 0.75 -1.109375 1.203125q-0.71875 0.453125 -1.75 0.453125zm4.031784 1.4375l0.765625 -2.953125l1.15625 0l-1.15625 2.953125l-0.765625 0zm6.2317657 -1.4375q-0.890625 0 -1.609375 -0.328125q-0.71875 -0.328125 -1.15625 -0.96875q-0.4375 -0.65625 -0.453125 -1.625l1.125 0q0.015625 0.796875 0.5625 1.375q0.546875 0.578125 1.53125 0.578125q0.984375 0 1.484375 -0.546875q0.5 -0.546875 0.5 -1.3125q0 -0.65625 -0.3125 -1.0625q-0.3125 -0.421875 -0.84375 -0.625q-0.515625 -0.203125 -1.140625 -0.203125l-0.703125 0l0 -0.9375l0.703125 0q0.90625 0 1.40625 -0.40625q0.515625 -0.421875 0.515625 -1.171875q0 -0.625 -0.40625 -1.03125q-0.40625 -0.40625 -1.203125 -0.40625q-0.765625 0 -1.234375 0.46875q-0.46875 0.453125 -0.53125 1.140625l-1.125 0q0.046875 -0.75 0.40625 -1.34375q0.359375 -0.59375 1.0 -0.90625q0.640625 -0.328125 1.484375 -0.328125q0.90625 0 1.515625 0.328125q0.609375 0.3125 0.921875 0.84375q0.3125 0.53125 0.3125 1.171875q0 0.703125 -0.390625 1.28125q-0.390625 0.578125 -1.15625 0.78125q0.828125 0.171875 1.375 0.796875q0.546875 0.609375 0.546875 1.609375q0 0.765625 -0.359375 1.421875q-0.359375 0.640625 -1.046875 1.03125q-0.6875 0.375 -1.71875 0.375zm5.6258698 -0.15625l0 -8.078125l-1.5 0.328125l0 -0.765625l1.875 -0.8125l0.75 0l0 9.328125l-1.125 0zm3.8844604 0l3.703125 -8.375l-5.125 0l0 -0.953125l6.265625 0l0 0.84375l-3.65625 8.484375l-1.1875 0z" fill-rule="nonzero"/><path fill="#000000" d="m24.005539 167.784l-2.515625 -6.609375l1.1875 0l1.984375 5.53125l2.0 -5.53125l1.140625 0l-2.5 6.609375l-1.296875 0zm5.709549 -8.078125q-0.328125 0 -0.546875 -0.21875q-0.21875 -0.21875 -0.21875 -0.546875q0 -0.328125 0.21875 -0.53125q0.21875 -0.21875 0.546875 -0.21875q0.328125 0 0.546875 0.21875q0.234375 0.203125 0.234375 0.53125q0 0.328125 -0.234375 0.546875q-0.21875 0.21875 -0.546875 0.21875zm-0.546875 8.078125l0 -6.609375l1.109375 0l0 6.609375l-1.109375 0zm6.0604095 0.15625q-0.984375 0 -1.734375 -0.453125q-0.734375 -0.453125 -1.140625 -1.234375q-0.40625 -0.78125 -0.40625 -1.78125q0 -1.0 0.40625 -1.78125q0.421875 -0.78125 1.15625 -1.21875q0.734375 -0.453125 1.734375 -0.453125q0.8125 0 1.4375 0.328125q0.625 0.328125 0.96875 0.9375l0 -4.09375l1.125 0l0 9.59375l-1.015625 0l-0.109375 -1.09375q-0.3125 0.484375 -0.921875 0.875q-0.59375 0.375 -1.5 0.375zm0.109375 -0.96875q0.671875 0 1.1875 -0.3125q0.515625 -0.3125 0.796875 -0.875q0.28125 -0.5625 0.28125 -1.3125q0 -0.734375 -0.28125 -1.296875q-0.28125 -0.5625 -0.796875 -0.875q-0.515625 -0.3125 -1.1875 -0.3125q-0.640625 0 -1.15625 0.3125q-0.515625 0.3125 -0.8125 0.875q-0.28125 0.5625 -0.28125 1.296875q0 0.75 0.28125 1.3125q0.296875 0.5625 0.8125 0.875q0.515625 0.3125 1.15625 0.3125zm8.229401 0.96875q-0.9375 0 -1.671875 -0.421875q-0.734375 -0.4375 -1.15625 -1.203125q-0.421875 -0.78125 -0.421875 -1.84375q0 -1.03125 0.40625 -1.8125q0.421875 -0.78125 1.15625 -1.203125q0.75 -0.4375 1.71875 -0.4375q0.953125 0 1.65625 0.4375q0.703125 0.421875 1.078125 1.140625q0.375 0.703125 0.375 1.515625q0 0.140625 -0.015625 0.296875q0 0.140625 0 0.328125l-5.265625 0q0.03125 0.75 0.34375 1.25q0.3125 0.5 0.78125 0.765625q0.484375 0.25 1.015625 0.25q0.6875 0 1.15625 -0.3125q0.46875 -0.328125 0.6875 -0.875l1.109375 0q-0.265625 0.921875 -1.03125 1.53125q-0.75 0.59375 -1.921875 0.59375zm0 -5.984375q-0.796875 0 -1.421875 0.5q-0.609375 0.484375 -0.703125 1.40625l4.15625 0q-0.046875 -0.890625 -0.625 -1.390625q-0.5625 -0.515625 -1.40625 -0.515625zm7.630554 5.984375q-0.9375 0 -1.6875 -0.421875q-0.75 -0.421875 -1.1875 -1.203125q-0.421875 -0.78125 -0.421875 -1.84375q0 -1.046875 0.4375 -1.828125q0.4375 -0.78125 1.1875 -1.203125q0.765625 -0.421875 1.6875 -0.421875q0.9375 0 1.6875 0.421875q0.75 0.421875 1.171875 1.203125q0.4375 0.78125 0.4375 1.828125q0 1.0625 -0.4375 1.84375q-0.4375 0.78125 -1.203125 1.203125q-0.75 0.421875 -1.671875 0.421875zm0 -0.953125q0.5625 0 1.046875 -0.28125q0.5 -0.28125 0.8125 -0.84375q0.3125 -0.5625 0.3125 -1.390625q0 -0.8125 -0.3125 -1.375q-0.296875 -0.5625 -0.796875 -0.84375q-0.484375 -0.28125 -1.046875 -0.28125q-0.5625 0 -1.0625 0.28125q-0.484375 0.28125 -0.796875 0.84375q-0.3125 0.5625 -0.3125 1.375q0 0.828125 0.3125 1.390625q0.3125 0.5625 0.796875 0.84375q0.484375 0.28125 1.046875 0.28125zm7.4058533 0.953125q-1.1875 0 -1.984375 -0.59375q-0.78125 -0.609375 -0.90625 -1.625l1.140625 0q0.109375 0.515625 0.546875 0.90625q0.453125 0.375 1.21875 0.375q0.703125 0 1.03125 -0.296875q0.34375 -0.3125 0.34375 -0.71875q0 -0.609375 -0.4375 -0.796875q-0.4375 -0.203125 -1.21875 -0.359375q-0.53125 -0.109375 -1.0625 -0.3125q-0.53125 -0.203125 -0.90625 -0.5625q-0.359375 -0.375 -0.359375 -0.96875q0 -0.875 0.640625 -1.421875q0.65625 -0.546875 1.765625 -0.546875q1.046875 0 1.71875 0.53125q0.6875 0.515625 0.78125 1.484375l-1.09375 0q-0.078125 -0.5 -0.453125 -0.78125q-0.359375 -0.296875 -0.96875 -0.296875q-0.59375 0 -0.921875 0.265625q-0.328125 0.25 -0.328125 0.65625q0 0.40625 0.421875 0.640625q0.421875 0.21875 1.140625 0.375q0.609375 0.125 1.15625 0.328125q0.5625 0.1875 0.90625 0.578125q0.359375 0.375 0.359375 1.09375q0.015625 0.890625 -0.671875 1.46875q-0.6875 0.578125 -1.859375 0.578125z" fill-rule="nonzero"/><path fill="#000000" d="m30.566727 199.784l3.703125 -8.375l-5.125 0l0 -0.953125l6.265625 0l0 0.84375l-3.65625 8.484375l-1.1875 0zm9.776581 0.15625q-1.234375 0 -2.140625 -0.59375q-0.890625 -0.609375 -1.375 -1.6875q-0.484375 -1.09375 -0.484375 -2.546875q0 -1.4375 0.484375 -2.515625q0.484375 -1.09375 1.375 -1.6875q0.90625 -0.609375 2.140625 -0.609375q1.234375 0 2.125 0.609375q0.90625 0.59375 1.375 1.6875q0.484375 1.078125 0.484375 2.515625q0 1.453125 -0.484375 2.546875q-0.46875 1.078125 -1.375 1.6875q-0.890625 0.59375 -2.125 0.59375zm0 -0.984375q0.8125 0 1.453125 -0.453125q0.65625 -0.46875 1.015625 -1.328125q0.375 -0.859375 0.375 -2.0625q0 -1.1875 -0.375 -2.046875q-0.359375 -0.859375 -1.015625 -1.3125q-0.640625 -0.453125 -1.453125 -0.453125q-0.828125 0 -1.46875 0.453125q-0.640625 0.453125 -1.015625 1.3125q-0.375 0.859375 -0.375 2.046875q0 1.203125 0.375 2.0625q0.375 0.859375 1.015625 1.328125q0.640625 0.453125 1.46875 0.453125zm9.236359 0.984375q-1.234375 0 -2.140625 -0.59375q-0.890625 -0.609375 -1.375 -1.6875q-0.484375 -1.09375 -0.484375 -2.546875q0 -1.4375 0.484375 -2.515625q0.484375 -1.09375 1.375 -1.6875q0.90625 -0.609375 2.140625 -0.609375q1.234375 0 2.125 0.609375q0.90625 0.59375 1.375 1.6875q0.484375 1.078125 0.484375 2.515625q0 1.453125 -0.484375 2.546875q-0.46875 1.078125 -1.375 1.6875q-0.890625 0.59375 -2.125 0.59375zm0 -0.984375q0.8125 0 1.453125 -0.453125q0.65625 -0.46875 1.015625 -1.328125q0.375 -0.859375 0.375 -2.0625q0 -1.1875 -0.375 -2.046875q-0.359375 -0.859375 -1.015625 -1.3125q-0.640625 -0.453125 -1.453125 -0.453125q-0.828125 0 -1.46875 0.453125q-0.640625 0.453125 -1.015625 1.3125q-0.375 0.859375 -0.375 2.046875q0 1.203125 0.375 2.0625q0.375 0.859375 1.015625 1.328125q0.640625 0.453125 1.46875 0.453125z" fill-rule="nonzero"/><path fill="#000000" d="m22.778137 215.94025q-0.9375 0 -1.703125 -0.421875q-0.75 -0.4375 -1.1875 -1.21875q-0.421875 -0.78125 -0.421875 -1.828125q0 -1.03125 0.421875 -1.8125q0.4375 -0.78125 1.1875 -1.203125q0.765625 -0.4375 1.703125 -0.4375q1.171875 0 1.984375 0.609375q0.8125 0.609375 1.015625 1.640625l-1.140625 0q-0.140625 -0.609375 -0.65625 -0.953125q-0.515625 -0.34375 -1.21875 -0.34375q-0.546875 0 -1.046875 0.28125q-0.484375 0.28125 -0.796875 0.84375q-0.3125 0.5625 -0.3125 1.375q0 0.828125 0.3125 1.390625q0.3125 0.5625 0.796875 0.859375q0.5 0.28125 1.046875 0.28125q0.703125 0 1.21875 -0.34375q0.515625 -0.34375 0.65625 -0.96875l1.140625 0q-0.203125 1.0 -1.015625 1.625q-0.8125 0.625 -1.984375 0.625zm4.56575 -0.15625l0 -9.59375l1.125 0l0 9.59375l-1.125 0zm5.161957 0.15625q-0.828125 0 -1.375 -0.28125q-0.546875 -0.28125 -0.8125 -0.734375q-0.265625 -0.46875 -0.265625 -1.015625q0 -1.015625 0.765625 -1.5625q0.78125 -0.546875 2.109375 -0.546875l1.78125 0l0 -0.078125q0 -0.875 -0.453125 -1.3125q-0.453125 -0.453125 -1.203125 -0.453125q-0.65625 0 -1.140625 0.328125q-0.46875 0.328125 -0.578125 0.953125l-1.15625 0q0.0625 -0.71875 0.484375 -1.203125q0.421875 -0.5 1.046875 -0.75q0.625 -0.265625 1.34375 -0.265625q1.375 0 2.078125 0.734375q0.703125 0.734375 0.703125 1.96875l0 4.0625l-1.0 0l-0.0625 -1.1875q-0.28125 0.5625 -0.828125 0.953125q-0.53125 0.390625 -1.4375 0.390625zm0.171875 -0.9375q0.640625 0 1.09375 -0.328125q0.453125 -0.34375 0.6875 -0.875q0.25 -0.53125 0.25 -1.125l0 -0.015625l-1.6875 0q-0.984375 0 -1.390625 0.34375q-0.40625 0.34375 -0.40625 0.84375q0 0.53125 0.375 0.84375q0.375 0.3125 1.078125 0.3125zm7.366745 0.9375q-1.1875 0 -1.984375 -0.59375q-0.78125 -0.609375 -0.90625 -1.625l1.140625 0q0.109375 0.515625 0.546875 0.90625q0.453125 0.375 1.21875 0.375q0.703125 0 1.03125 -0.296875q0.34375 -0.3125 0.34375 -0.71875q0 -0.609375 -0.4375 -0.796875q-0.4375 -0.203125 -1.21875 -0.359375q-0.53125 -0.109375 -1.0625 -0.3125q-0.53125 -0.203125 -0.90625 -0.5625q-0.359375 -0.375 -0.359375 -0.96875q0 -0.875 0.640625 -1.421875q0.65625 -0.546875 1.765625 -0.546875q1.046875 0 1.71875 0.53125q0.6875 0.515625 0.78125 1.484375l-1.09375 0q-0.078125 -0.5 -0.453125 -0.78125q-0.359375 -0.296875 -0.96875 -0.296875q-0.59375 0 -0.921875 0.265625q-0.328125 0.25 -0.328125 0.65625q0 0.40625 0.421875 0.640625q0.421875 0.21875 1.140625 0.375q0.609375 0.125 1.15625 0.328125q0.5625 0.1875 0.90625 0.578125q0.359375 0.375 0.359375 1.09375q0.015625 0.890625 -0.671875 1.46875q-0.6875 0.578125 -1.859375 0.578125zm6.664032 0q-1.1875 0 -1.984375 -0.59375q-0.78125 -0.609375 -0.90625 -1.625l1.140625 0q0.109375 0.515625 0.546875 0.90625q0.453125 0.375 1.21875 0.375q0.703125 0 1.03125 -0.296875q0.34375 -0.3125 0.34375 -0.71875q0 -0.609375 -0.4375 -0.796875q-0.4375 -0.203125 -1.21875 -0.359375q-0.53125 -0.109375 -1.0625 -0.3125q-0.53125 -0.203125 -0.90625 -0.5625q-0.359375 -0.375 -0.359375 -0.96875q0 -0.875 0.640625 -1.421875q0.65625 -0.546875 1.765625 -0.546875q1.046875 0 1.71875 0.53125q0.6875 0.515625 0.78125 1.484375l-1.09375 0q-0.078125 -0.5 -0.453125 -0.78125q-0.359375 -0.296875 -0.96875 -0.296875q-0.59375 0 -0.921875 0.265625q-0.328125 0.25 -0.328125 0.65625q0 0.40625 0.421875 0.640625q0.421875 0.21875 1.140625 0.375q0.609375 0.125 1.15625 0.328125q0.5625 0.1875 0.90625 0.578125q0.359375 0.375 0.359375 1.09375q0.015625 0.890625 -0.671875 1.46875q-0.6875 0.578125 -1.859375 0.578125zm7.101532 0q-0.9375 0 -1.671875 -0.421875q-0.734375 -0.4375 -1.15625 -1.203125q-0.421875 -0.78125 -0.421875 -1.84375q0 -1.03125 0.40625 -1.8125q0.421875 -0.78125 1.15625 -1.203125q0.75 -0.4375 1.71875 -0.4375q0.953125 0 1.65625 0.4375q0.703125 0.421875 1.078125 1.140625q0.375 0.703125 0.375 1.515625q0 0.140625 -0.015625 0.296875q0 0.140625 0 0.328125l-5.265625 0q0.03125 0.75 0.34375 1.25q0.3125 0.5 0.78125 0.765625q0.484375 0.25 1.015625 0.25q0.6875 0 1.15625 -0.3125q0.46875 -0.328125 0.6875 -0.875l1.109375 0q-0.265625 0.921875 -1.03125 1.53125q-0.75 0.59375 -1.921875 0.59375zm0 -5.984375q-0.796875 0 -1.421875 0.5q-0.609375 0.484375 -0.703125 1.40625l4.15625 0q-0.046875 -0.890625 -0.625 -1.390625q-0.5625 -0.515625 -1.40625 -0.515625zm7.146179 5.984375q-1.1875 0 -1.984375 -0.59375q-0.78125 -0.609375 -0.90625 -1.625l1.140625 0q0.109375 0.515625 0.546875 0.90625q0.453125 0.375 1.21875 0.375q0.703125 0 1.03125 -0.296875q0.34375 -0.3125 0.34375 -0.71875q0 -0.609375 -0.4375 -0.796875q-0.4375 -0.203125 -1.21875 -0.359375q-0.53125 -0.109375 -1.0625 -0.3125q-0.53125 -0.203125 -0.90625 -0.5625q-0.359375 -0.375 -0.359375 -0.96875q0 -0.875 0.640625 -1.421875q0.65625 -0.546875 1.765625 -0.546875q1.046875 0 1.71875 0.53125q0.6875 0.515625 0.78125 1.484375l-1.09375 0q-0.078125 -0.5 -0.453125 -0.78125q-0.359375 -0.296875 -0.96875 -0.296875q-0.59375 0 -0.921875 0.265625q-0.328125 0.25 -0.328125 0.65625q0 0.40625 0.421875 0.640625q0.421875 0.21875 1.140625 0.375q0.609375 0.125 1.15625 0.328125q0.5625 0.1875 0.90625 0.578125q0.359375 0.375 0.359375 1.09375q0.015625 0.890625 -0.671875 1.46875q-0.6875 0.578125 -1.859375 0.578125z" fill-rule="nonzero"/><path fill="#f9526b" d="m93.968506 89.892265l82.99213 0l0 178.20471l-82.99213 0z" fill-rule="evenodd"/><path fill="#000000" d="m116.31761 151.95088q-0.890625 0 -1.609375 -0.328125q-0.71875 -0.328125 -1.15625 -0.96875q-0.4375 -0.65625 -0.453125 -1.625l1.125 0q0.015625 0.796875 0.5625 1.375q0.546875 0.578125 1.53125 0.578125q0.984375 0 1.484375 -0.546875q0.5 -0.546875 0.5 -1.3125q0 -0.65625 -0.3125 -1.0625q-0.3125 -0.421875 -0.84375 -0.625q-0.515625 -0.203125 -1.140625 -0.203125l-0.703125 0l0 -0.9375l0.703125 0q0.90625 0 1.40625 -0.40625q0.515625 -0.421875 0.515625 -1.171875q0 -0.625 -0.40625 -1.03125q-0.40625 -0.40625 -1.203125 -0.40625q-0.765625 0 -1.234375 0.46875q-0.46875 0.453125 -0.53125 1.140625l-1.125 0q0.046875 -0.75 0.40625 -1.34375q0.359375 -0.59375 1.0 -0.90625q0.640625 -0.328125 1.484375 -0.328125q0.90625 0 1.515625 0.328125q0.609375 0.3125 0.921875 0.84375q0.3125 0.53125 0.3125 1.171875q0 0.703125 -0.390625 1.28125q-0.390625 0.578125 -1.15625 0.78125q0.828125 0.171875 1.375 0.796875q0.546875 0.609375 0.546875 1.609375q0 0.765625 -0.359375 1.421875q-0.359375 0.640625 -1.046875 1.03125q-0.6875 0.375 -1.71875 0.375zm8.102539 0q-0.953125 0 -1.671875 -0.34375q-0.703125 -0.34375 -1.125 -0.953125q-0.40625 -0.609375 -0.5 -1.375l1.09375 0q0.15625 0.765625 0.734375 1.25q0.59375 0.46875 1.484375 0.46875q0.671875 0 1.140625 -0.3125q0.484375 -0.3125 0.734375 -0.84375q0.265625 -0.546875 0.265625 -1.1875q0 -1.046875 -0.59375 -1.6875q-0.578125 -0.640625 -1.5 -0.640625q-0.78125 0 -1.328125 0.359375q-0.546875 0.34375 -0.796875 0.890625l-1.0625 0l0.796875 -5.109375l4.890625 0l0 0.96875l-4.03125 0l-0.546875 2.84375q0.328125 -0.390625 0.890625 -0.640625q0.5625 -0.25 1.296875 -0.25q0.921875 0 1.609375 0.421875q0.6875 0.421875 1.0625 1.15625q0.390625 0.734375 0.390625 1.671875q0 0.890625 -0.375 1.65625q-0.375 0.75 -1.109375 1.203125q-0.71875 0.453125 -1.75 0.453125zm4.031784 1.4375l0.765625 -2.953125l1.15625 0l-1.15625 2.953125l-0.765625 0zm6.9661407 -1.4375q-1.234375 0 -2.140625 -0.59375q-0.890625 -0.609375 -1.375 -1.6875q-0.484375 -1.09375 -0.484375 -2.546875q0 -1.4375 0.484375 -2.515625q0.484375 -1.09375 1.375 -1.6875q0.90625 -0.609375 2.140625 -0.609375q1.234375 0 2.125 0.609375q0.90625 0.59375 1.375 1.6875q0.484375 1.078125 0.484375 2.515625q0 1.453125 -0.484375 2.546875q-0.46875 1.078125 -1.375 1.6875q-0.890625 0.59375 -2.125 0.59375zm0 -0.984375q0.8125 0 1.453125 -0.453125q0.65625 -0.46875 1.015625 -1.328125q0.375 -0.859375 0.375 -2.0625q0 -1.1875 -0.375 -2.046875q-0.359375 -0.859375 -1.015625 -1.3125q-0.640625 -0.453125 -1.453125 -0.453125q-0.828125 0 -1.46875 0.453125q-0.640625 0.453125 -1.015625 1.3125q-0.375 0.859375 -0.375 2.046875q0 1.203125 0.375 2.0625q0.375 0.859375 1.015625 1.328125q0.640625 0.453125 1.46875 0.453125zm9.236359 0.984375q-1.234375 0 -2.140625 -0.59375q-0.890625 -0.609375 -1.375 -1.6875q-0.484375 -1.09375 -0.484375 -2.546875q0 -1.4375 0.484375 -2.515625q0.484375 -1.09375 1.375 -1.6875q0.90625 -0.609375 2.140625 -0.609375q1.234375 0 2.125 0.609375q0.90625 0.59375 1.375 1.6875q0.484375 1.078125 0.484375 2.515625q0 1.453125 -0.484375 2.546875q-0.46875 1.078125 -1.375 1.6875q-0.890625 0.59375 -2.125 0.59375zm0 -0.984375q0.8125 0 1.453125 -0.453125q0.65625 -0.46875 1.015625 -1.328125q0.375 -0.859375 0.375 -2.0625q0 -1.1875 -0.375 -2.046875q-0.359375 -0.859375 -1.015625 -1.3125q-0.640625 -0.453125 -1.453125 -0.453125q-0.828125 0 -1.46875 0.453125q-0.640625 0.453125 -1.015625 1.3125q-0.375 0.859375 -0.375 2.046875q0 1.203125 0.375 2.0625q0.375 0.859375 1.015625 1.328125q0.640625 0.453125 1.46875 0.453125zm9.236359 0.984375q-1.234375 0 -2.140625 -0.59375q-0.890625 -0.609375 -1.375 -1.6875q-0.484375 -1.09375 -0.484375 -2.546875q0 -1.4375 0.484375 -2.515625q0.484375 -1.09375 1.375 -1.6875q0.90625 -0.609375 2.140625 -0.609375q1.234375 0 2.125 0.609375q0.90625 0.59375 1.375 1.6875q0.484375 1.078125 0.484375 2.515625q0 1.453125 -0.484375 2.546875q-0.46875 1.078125 -1.375 1.6875q-0.890625 0.59375 -2.125 0.59375zm0 -0.984375q0.8125 0 1.453125 -0.453125q0.65625 -0.46875 1.015625 -1.328125q0.375 -0.859375 0.375 -2.0625q0 -1.1875 -0.375 -2.046875q-0.359375 -0.859375 -1.015625 -1.3125q-0.640625 -0.453125 -1.453125 -0.453125q-0.828125 0 -1.46875 0.453125q-0.640625 0.453125 -1.015625 1.3125q-0.375 0.859375 -0.375 2.046875q0 1.203125 0.375 2.0625q0.375 0.859375 1.015625 1.328125q0.640625 0.453125 1.46875 0.453125z" fill-rule="nonzero"/><path fill="#000000" d="m117.974045 167.79462l-2.515625 -6.609375l1.1875 0l1.984375 5.53125l2.0 -5.53125l1.140625 0l-2.5 6.609375l-1.296875 0zm5.709549 -8.078125q-0.328125 0 -0.546875 -0.21875q-0.21875 -0.21875 -0.21875 -0.546875q0 -0.328125 0.21875 -0.53125q0.21875 -0.21875 0.546875 -0.21875q0.328125 0 0.546875 0.21875q0.234375 0.203125 0.234375 0.53125q0 0.328125 -0.234375 0.546875q-0.21875 0.21875 -0.546875 0.21875zm-0.546875 8.078125l0 -6.609375l1.109375 0l0 6.609375l-1.109375 0zm6.0604095 0.15625q-0.984375 0 -1.734375 -0.453125q-0.734375 -0.453125 -1.140625 -1.234375q-0.40625 -0.78125 -0.40625 -1.78125q0 -1.0 0.40625 -1.78125q0.421875 -0.78125 1.15625 -1.21875q0.734375 -0.453125 1.734375 -0.453125q0.8125 0 1.4375 0.328125q0.625 0.328125 0.96875 0.9375l0 -4.09375l1.125 0l0 9.59375l-1.015625 0l-0.109375 -1.09375q-0.3125 0.484375 -0.921875 0.875q-0.59375 0.375 -1.5 0.375zm0.109375 -0.96875q0.671875 0 1.1875 -0.3125q0.515625 -0.3125 0.796875 -0.875q0.28125 -0.5625 0.28125 -1.3125q0 -0.734375 -0.28125 -1.296875q-0.28125 -0.5625 -0.796875 -0.875q-0.515625 -0.3125 -1.1875 -0.3125q-0.640625 0 -1.15625 0.3125q-0.515625 0.3125 -0.8125 0.875q-0.28125 0.5625 -0.28125 1.296875q0 0.75 0.28125 1.3125q0.296875 0.5625 0.8125 0.875q0.515625 0.3125 1.15625 0.3125zm8.229401 0.96875q-0.9375 0 -1.671875 -0.421875q-0.734375 -0.4375 -1.15625 -1.203125q-0.421875 -0.78125 -0.421875 -1.84375q0 -1.03125 0.40625 -1.8125q0.421875 -0.78125 1.15625 -1.203125q0.75 -0.4375 1.71875 -0.4375q0.953125 0 1.65625 0.4375q0.703125 0.421875 1.078125 1.140625q0.375 0.703125 0.375 1.515625q0 0.140625 -0.015625 0.296875q0 0.140625 0 0.328125l-5.265625 0q0.03125 0.75 0.34375 1.25q0.3125 0.5 0.78125 0.765625q0.484375 0.25 1.015625 0.25q0.6875 0 1.15625 -0.3125q0.46875 -0.328125 0.6875 -0.875l1.109375 0q-0.265625 0.921875 -1.03125 1.53125q-0.75 0.59375 -1.921875 0.59375zm0 -5.984375q-0.796875 0 -1.421875 0.5q-0.609375 0.484375 -0.703125 1.40625l4.15625 0q-0.046875 -0.890625 -0.625 -1.390625q-0.5625 -0.515625 -1.40625 -0.515625zm7.630554 5.984375q-0.9375 0 -1.6875 -0.421875q-0.75 -0.421875 -1.1875 -1.203125q-0.421875 -0.78125 -0.421875 -1.84375q0 -1.046875 0.4375 -1.828125q0.4375 -0.78125 1.1875 -1.203125q0.765625 -0.421875 1.6875 -0.421875q0.9375 0 1.6875 0.421875q0.75 0.421875 1.171875 1.203125q0.4375 0.78125 0.4375 1.828125q0 1.0625 -0.4375 1.84375q-0.4375 0.78125 -1.203125 1.203125q-0.75 0.421875 -1.671875 0.421875zm0 -0.953125q0.5625 0 1.046875 -0.28125q0.5 -0.28125 0.8125 -0.84375q0.3125 -0.5625 0.3125 -1.390625q0 -0.8125 -0.3125 -1.375q-0.296875 -0.5625 -0.796875 -0.84375q-0.484375 -0.28125 -1.046875 -0.28125q-0.5625 0 -1.0625 0.28125q-0.484375 0.28125 -0.796875 0.84375q-0.3125 0.5625 -0.3125 1.375q0 0.828125 0.3125 1.390625q0.3125 0.5625 0.796875 0.84375q0.484375 0.28125 1.046875 0.28125zm7.4058533 0.953125q-1.1875 0 -1.984375 -0.59375q-0.78125 -0.609375 -0.90625 -1.625l1.140625 0q0.109375 0.515625 0.546875 0.90625q0.453125 0.375 1.21875 0.375q0.703125 0 1.03125 -0.296875q0.34375 -0.3125 0.34375 -0.71875q0 -0.609375 -0.4375 -0.796875q-0.4375 -0.203125 -1.21875 -0.359375q-0.53125 -0.109375 -1.0625 -0.3125q-0.53125 -0.203125 -0.90625 -0.5625q-0.359375 -0.375 -0.359375 -0.96875q0 -0.875 0.640625 -1.421875q0.65625 -0.546875 1.765625 -0.546875q1.046875 0 1.71875 0.53125q0.6875 0.515625 0.78125 1.484375l-1.09375 0q-0.078125 -0.5 -0.453125 -0.78125q-0.359375 -0.296875 -0.96875 -0.296875q-0.59375 0 -0.921875 0.265625q-0.328125 0.25 -0.328125 0.65625q0 0.40625 0.421875 0.640625q0.421875 0.21875 1.140625 0.375q0.609375 0.125 1.15625 0.328125q0.5625 0.1875 0.90625 0.578125q0.359375 0.375 0.359375 1.09375q0.015625 0.890625 -0.671875 1.46875q-0.6875 0.578125 -1.859375 0.578125z" fill-rule="nonzero"/><path fill="#000000" d="m124.53523 199.79462l3.703125 -8.375l-5.125 0l0 -0.953125l6.265625 0l0 0.84375l-3.65625 8.484375l-1.1875 0zm9.776581 0.15625q-1.234375 0 -2.140625 -0.59375q-0.890625 -0.609375 -1.375 -1.6875q-0.484375 -1.09375 -0.484375 -2.546875q0 -1.4375 0.484375 -2.515625q0.484375 -1.09375 1.375 -1.6875q0.90625 -0.609375 2.140625 -0.609375q1.234375 0 2.125 0.609375q0.90625 0.59375 1.375 1.6875q0.484375 1.078125 0.484375 2.515625q0 1.453125 -0.484375 2.546875q-0.46875 1.078125 -1.375 1.6875q-0.890625 0.59375 -2.125 0.59375zm0 -0.984375q0.8125 0 1.453125 -0.453125q0.65625 -0.46875 1.015625 -1.328125q0.375 -0.859375 0.375 -2.0625q0 -1.1875 -0.375 -2.046875q-0.359375 -0.859375 -1.015625 -1.3125q-0.640625 -0.453125 -1.453125 -0.453125q-0.828125 0 -1.46875 0.453125q-0.640625 0.453125 -1.015625 1.3125q-0.375 0.859375 -0.375 2.046875q0 1.203125 0.375 2.0625q0.375 0.859375 1.015625 1.328125q0.640625 0.453125 1.46875 0.453125zm9.236359 0.984375q-1.234375 0 -2.140625 -0.59375q-0.890625 -0.609375 -1.375 -1.6875q-0.484375 -1.09375 -0.484375 -2.546875q0 -1.4375 0.484375 -2.515625q0.484375 -1.09375 1.375 -1.6875q0.90625 -0.609375 2.140625 -0.609375q1.234375 0 2.125 0.609375q0.90625 0.59375 1.375 1.6875q0.484375 1.078125 0.484375 2.515625q0 1.453125 -0.484375 2.546875q-0.46875 1.078125 -1.375 1.6875q-0.890625 0.59375 -2.125 0.59375zm0 -0.984375q0.8125 0 1.453125 -0.453125q0.65625 -0.46875 1.015625 -1.328125q0.375 -0.859375 0.375 -2.0625q0 -1.1875 -0.375 -2.046875q-0.359375 -0.859375 -1.015625 -1.3125q-0.640625 -0.453125 -1.453125 -0.453125q-0.828125 0 -1.46875 0.453125q-0.640625 0.453125 -1.015625 1.3125q-0.375 0.859375 -0.375 2.046875q0 1.203125 0.375 2.0625q0.375 0.859375 1.015625 1.328125q0.640625 0.453125 1.46875 0.453125z" fill-rule="nonzero"/><path fill="#000000" d="m116.74664 215.95087q-0.9375 0 -1.703125 -0.421875q-0.75 -0.4375 -1.1875 -1.21875q-0.421875 -0.78125 -0.421875 -1.828125q0 -1.03125 0.421875 -1.8125q0.4375 -0.78125 1.1875 -1.203125q0.765625 -0.4375 1.703125 -0.4375q1.171875 0 1.984375 0.609375q0.8125 0.609375 1.015625 1.640625l-1.140625 0q-0.140625 -0.609375 -0.65625 -0.953125q-0.515625 -0.34375 -1.21875 -0.34375q-0.546875 0 -1.046875 0.28125q-0.484375 0.28125 -0.796875 0.84375q-0.3125 0.5625 -0.3125 1.375q0 0.828125 0.3125 1.390625q0.3125 0.5625 0.796875 0.859375q0.5 0.28125 1.046875 0.28125q0.703125 0 1.21875 -0.34375q0.515625 -0.34375 0.65625 -0.96875l1.140625 0q-0.203125 1.0 -1.015625 1.625q-0.8125 0.625 -1.984375 0.625zm4.56575 -0.15625l0 -9.59375l1.125 0l0 9.59375l-1.125 0zm5.161957 0.15625q-0.828125 0 -1.375 -0.28125q-0.546875 -0.28125 -0.8125 -0.734375q-0.265625 -0.46875 -0.265625 -1.015625q0 -1.015625 0.765625 -1.5625q0.78125 -0.546875 2.109375 -0.546875l1.78125 0l0 -0.078125q0 -0.875 -0.453125 -1.3125q-0.453125 -0.453125 -1.203125 -0.453125q-0.65625 0 -1.140625 0.328125q-0.46875 0.328125 -0.578125 0.953125l-1.15625 0q0.0625 -0.71875 0.484375 -1.203125q0.421875 -0.5 1.046875 -0.75q0.625 -0.265625 1.34375 -0.265625q1.375 0 2.078125 0.734375q0.703125 0.734375 0.703125 1.96875l0 4.0625l-1.0 0l-0.0625 -1.1875q-0.28125 0.5625 -0.828125 0.953125q-0.53125 0.390625 -1.4375 0.390625zm0.171875 -0.9375q0.640625 0 1.09375 -0.328125q0.453125 -0.34375 0.6875 -0.875q0.25 -0.53125 0.25 -1.125l0 -0.015625l-1.6875 0q-0.984375 0 -1.390625 0.34375q-0.40625 0.34375 -0.40625 0.84375q0 0.53125 0.375 0.84375q0.375 0.3125 1.078125 0.3125zm7.366745 0.9375q-1.1875 0 -1.984375 -0.59375q-0.78125 -0.609375 -0.90625 -1.625l1.140625 0q0.109375 0.515625 0.546875 0.90625q0.453125 0.375 1.21875 0.375q0.703125 0 1.03125 -0.296875q0.34375 -0.3125 0.34375 -0.71875q0 -0.609375 -0.4375 -0.796875q-0.4375 -0.203125 -1.21875 -0.359375q-0.53125 -0.109375 -1.0625 -0.3125q-0.53125 -0.203125 -0.90625 -0.5625q-0.359375 -0.375 -0.359375 -0.96875q0 -0.875 0.640625 -1.421875q0.65625 -0.546875 1.765625 -0.546875q1.046875 0 1.71875 0.53125q0.6875 0.515625 0.78125 1.484375l-1.09375 0q-0.078125 -0.5 -0.453125 -0.78125q-0.359375 -0.296875 -0.96875 -0.296875q-0.59375 0 -0.921875 0.265625q-0.328125 0.25 -0.328125 0.65625q0 0.40625 0.421875 0.640625q0.421875 0.21875 1.140625 0.375q0.609375 0.125 1.15625 0.328125q0.5625 0.1875 0.90625 0.578125q0.359375 0.375 0.359375 1.09375q0.015625 0.890625 -0.671875 1.46875q-0.6875 0.578125 -1.859375 0.578125zm6.664032 0q-1.1875 0 -1.984375 -0.59375q-0.78125 -0.609375 -0.90625 -1.625l1.140625 0q0.109375 0.515625 0.546875 0.90625q0.453125 0.375 1.21875 0.375q0.703125 0 1.03125 -0.296875q0.34375 -0.3125 0.34375 -0.71875q0 -0.609375 -0.4375 -0.796875q-0.4375 -0.203125 -1.21875 -0.359375q-0.53125 -0.109375 -1.0625 -0.3125q-0.53125 -0.203125 -0.90625 -0.5625q-0.359375 -0.375 -0.359375 -0.96875q0 -0.875 0.640625 -1.421875q0.65625 -0.546875 1.765625 -0.546875q1.046875 0 1.71875 0.53125q0.6875 0.515625 0.78125 1.484375l-1.09375 0q-0.078125 -0.5 -0.453125 -0.78125q-0.359375 -0.296875 -0.96875 -0.296875q-0.59375 0 -0.921875 0.265625q-0.328125 0.25 -0.328125 0.65625q0 0.40625 0.421875 0.640625q0.421875 0.21875 1.140625 0.375q0.609375 0.125 1.15625 0.328125q0.5625 0.1875 0.90625 0.578125q0.359375 0.375 0.359375 1.09375q0.015625 0.890625 -0.671875 1.46875q-0.6875 0.578125 -1.859375 0.578125zm7.101532 0q-0.9375 0 -1.671875 -0.421875q-0.734375 -0.4375 -1.15625 -1.203125q-0.421875 -0.78125 -0.421875 -1.84375q0 -1.03125 0.40625 -1.8125q0.421875 -0.78125 1.15625 -1.203125q0.75 -0.4375 1.71875 -0.4375q0.953125 0 1.65625 0.4375q0.703125 0.421875 1.078125 1.140625q0.375 0.703125 0.375 1.515625q0 0.140625 -0.015625 0.296875q0 0.140625 0 0.328125l-5.265625 0q0.03125 0.75 0.34375 1.25q0.3125 0.5 0.78125 0.765625q0.484375 0.25 1.015625 0.25q0.6875 0 1.15625 -0.3125q0.46875 -0.328125 0.6875 -0.875l1.109375 0q-0.265625 0.921875 -1.03125 1.53125q-0.75 0.59375 -1.921875 0.59375zm0 -5.984375q-0.796875 0 -1.421875 0.5q-0.609375 0.484375 -0.703125 1.40625l4.15625 0q-0.046875 -0.890625 -0.625 -1.390625q-0.5625 -0.515625 -1.40625 -0.515625zm7.146179 5.984375q-1.1875 0 -1.984375 -0.59375q-0.78125 -0.609375 -0.90625 -1.625l1.140625 0q0.109375 0.515625 0.546875 0.90625q0.453125 0.375 1.21875 0.375q0.703125 0 1.03125 -0.296875q0.34375 -0.3125 0.34375 -0.71875q0 -0.609375 -0.4375 -0.796875q-0.4375 -0.203125 -1.21875 -0.359375q-0.53125 -0.109375 -1.0625 -0.3125q-0.53125 -0.203125 -0.90625 -0.5625q-0.359375 -0.375 -0.359375 -0.96875q0 -0.875 0.640625 -1.421875q0.65625 -0.546875 1.765625 -0.546875q1.046875 0 1.71875 0.53125q0.6875 0.515625 0.78125 1.484375l-1.09375 0q-0.078125 -0.5 -0.453125 -0.78125q-0.359375 -0.296875 -0.96875 -0.296875q-0.59375 0 -0.921875 0.265625q-0.328125 0.25 -0.328125 0.65625q0 0.40625 0.421875 0.640625q0.421875 0.21875 1.140625 0.375q0.609375 0.125 1.15625 0.328125q0.5625 0.1875 0.90625 0.578125q0.359375 0.375 0.359375 1.09375q0.015625 0.890625 -0.671875 1.46875q-0.6875 0.578125 -1.859375 0.578125z" fill-rule="nonzero"/><path fill="#ff8a4f" d="m187.93701 89.89382l82.99213 0l0 178.20471l-82.99213 0z" fill-rule="evenodd"/><path fill="#000000" d="m206.51521 151.79619l3.703125 -8.375l-5.125 0l0 -0.953125l6.265625 0l0 0.84375l-3.65625 8.484375l-1.1875 0zm9.776581 0.15625q-1.234375 0 -2.140625 -0.59375q-0.890625 -0.609375 -1.375 -1.6875q-0.484375 -1.09375 -0.484375 -2.546875q0 -1.4375 0.484375 -2.515625q0.484375 -1.09375 1.375 -1.6875q0.90625 -0.609375 2.140625 -0.609375q1.234375 0 2.125 0.609375q0.90625 0.59375 1.375 1.6875q0.484375 1.078125 0.484375 2.515625q0 1.453125 -0.484375 2.546875q-0.46875 1.078125 -1.375 1.6875q-0.890625 0.59375 -2.125 0.59375zm0 -0.984375q0.8125 0 1.453125 -0.453125q0.65625 -0.46875 1.015625 -1.328125q0.375 -0.859375 0.375 -2.0625q0 -1.1875 -0.375 -2.046875q-0.359375 -0.859375 -1.015625 -1.3125q-0.640625 -0.453125 -1.453125 -0.453125q-0.828125 0 -1.46875 0.453125q-0.640625 0.453125 -1.015625 1.3125q-0.375 0.859375 -0.375 2.046875q0 1.203125 0.375 2.0625q0.375 0.859375 1.015625 1.328125q0.640625 0.453125 1.46875 0.453125zm4.2426147 2.421875l0.765625 -2.953125l1.15625 0l-1.15625 2.953125l-0.765625 0zm10.498077 -1.4375q-1.234375 0 -2.140625 -0.59375q-0.890625 -0.609375 -1.375 -1.6875q-0.484375 -1.09375 -0.484375 -2.546875q0 -1.4375 0.484375 -2.515625q0.484375 -1.09375 1.375 -1.6875q0.90625 -0.609375 2.140625 -0.609375q1.234375 0 2.125 0.609375q0.90625 0.59375 1.375 1.6875q0.484375 1.078125 0.484375 2.515625q0 1.453125 -0.484375 2.546875q-0.46875 1.078125 -1.375 1.6875q-0.890625 0.59375 -2.125 0.59375zm0 -0.984375q0.8125 0 1.453125 -0.453125q0.65625 -0.46875 1.015625 -1.328125q0.375 -0.859375 0.375 -2.0625q0 -1.1875 -0.375 -2.046875q-0.359375 -0.859375 -1.015625 -1.3125q-0.640625 -0.453125 -1.453125 -0.453125q-0.828125 0 -1.46875 0.453125q-0.640625 0.453125 -1.015625 1.3125q-0.375 0.859375 -0.375 2.046875q0 1.203125 0.375 2.0625q0.375 0.859375 1.015625 1.328125q0.640625 0.453125 1.46875 0.453125zm9.236359 0.984375q-1.234375 0 -2.140625 -0.59375q-0.890625 -0.609375 -1.375 -1.6875q-0.484375 -1.09375 -0.484375 -2.546875q0 -1.4375 0.484375 -2.515625q0.484375 -1.09375 1.375 -1.6875q0.90625 -0.609375 2.140625 -0.609375q1.234375 0 2.125 0.609375q0.90625 0.59375 1.375 1.6875q0.484375 1.078125 0.484375 2.515625q0 1.453125 -0.484375 2.546875q-0.46875 1.078125 -1.375 1.6875q-0.890625 0.59375 -2.125 0.59375zm0 -0.984375q0.8125 0 1.453125 -0.453125q0.65625 -0.46875 1.015625 -1.328125q0.375 -0.859375 0.375 -2.0625q0 -1.1875 -0.375 -2.046875q-0.359375 -0.859375 -1.015625 -1.3125q-0.640625 -0.453125 -1.453125 -0.453125q-0.828125 0 -1.46875 0.453125q-0.640625 0.453125 -1.015625 1.3125q-0.375 0.859375 -0.375 2.046875q0 1.203125 0.375 2.0625q0.375 0.859375 1.015625 1.328125q0.640625 0.453125 1.46875 0.453125zm9.236359 0.984375q-1.234375 0 -2.140625 -0.59375q-0.890625 -0.609375 -1.375 -1.6875q-0.484375 -1.09375 -0.484375 -2.546875q0 -1.4375 0.484375 -2.515625q0.484375 -1.09375 1.375 -1.6875q0.90625 -0.609375 2.140625 -0.609375q1.234375 0 2.125 0.609375q0.90625 0.59375 1.375 1.6875q0.484375 1.078125 0.484375 2.515625q0 1.453125 -0.484375 2.546875q-0.46875 1.078125 -1.375 1.6875q-0.890625 0.59375 -2.125 0.59375zm0 -0.984375q0.8125 0 1.453125 -0.453125q0.65625 -0.46875 1.015625 -1.328125q0.375 -0.859375 0.375 -2.0625q0 -1.1875 -0.375 -2.046875q-0.359375 -0.859375 -1.015625 -1.3125q-0.640625 -0.453125 -1.453125 -0.453125q-0.828125 0 -1.46875 0.453125q-0.640625 0.453125 -1.015625 1.3125q-0.375 0.859375 -0.375 2.046875q0 1.203125 0.375 2.0625q0.375 0.859375 1.015625 1.328125q0.640625 0.453125 1.46875 0.453125z" fill-rule="nonzero"/><path fill="#000000" d="m211.93169 167.79619l-3.5 -9.328125l1.203125 0l2.953125 8.140625l2.96875 -8.140625l1.1875 0l-3.5 9.328125l-1.3125 0zm6.7000275 -8.078125q-0.328125 0 -0.546875 -0.21875q-0.21875 -0.21875 -0.21875 -0.546875q0 -0.328125 0.21875 -0.53125q0.21875 -0.21875 0.546875 -0.21875q0.328125 0 0.546875 0.21875q0.234375 0.203125 0.234375 0.53125q0 0.328125 -0.234375 0.546875q-0.21875 0.21875 -0.546875 0.21875zm-0.546875 8.078125l0 -6.609375l1.109375 0l0 6.609375l-1.109375 0zm6.0604095 0.15625q-0.984375 0 -1.734375 -0.453125q-0.734375 -0.453125 -1.140625 -1.234375q-0.40625 -0.78125 -0.40625 -1.78125q0 -1.0 0.40625 -1.78125q0.421875 -0.78125 1.15625 -1.21875q0.734375 -0.453125 1.734375 -0.453125q0.8125 0 1.4375 0.328125q0.625 0.328125 0.96875 0.9375l0 -4.09375l1.125 0l0 9.59375l-1.015625 0l-0.109375 -1.09375q-0.3125 0.484375 -0.921875 0.875q-0.59375 0.375 -1.5 0.375zm0.109375 -0.96875q0.671875 0 1.1875 -0.3125q0.515625 -0.3125 0.796875 -0.875q0.28125 -0.5625 0.28125 -1.3125q0 -0.734375 -0.28125 -1.296875q-0.28125 -0.5625 -0.796875 -0.875q-0.515625 -0.3125 -1.1875 -0.3125q-0.640625 0 -1.15625 0.3125q-0.515625 0.3125 -0.8125 0.875q-0.28125 0.5625 -0.28125 1.296875q0 0.75 0.28125 1.3125q0.296875 0.5625 0.8125 0.875q0.515625 0.3125 1.15625 0.3125zm8.229401 0.96875q-0.9375 0 -1.671875 -0.421875q-0.734375 -0.4375 -1.15625 -1.203125q-0.421875 -0.78125 -0.421875 -1.84375q0 -1.03125 0.40625 -1.8125q0.421875 -0.78125 1.15625 -1.203125q0.75 -0.4375 1.71875 -0.4375q0.953125 0 1.65625 0.4375q0.703125 0.421875 1.078125 1.140625q0.375 0.703125 0.375 1.515625q0 0.140625 -0.015625 0.296875q0 0.140625 0 0.328125l-5.265625 0q0.03125 0.75 0.34375 1.25q0.3125 0.5 0.78125 0.765625q0.484375 0.25 1.015625 0.25q0.6875 0 1.15625 -0.3125q0.46875 -0.328125 0.6875 -0.875l1.109375 0q-0.265625 0.921875 -1.03125 1.53125q-0.75 0.59375 -1.921875 0.59375zm0 -5.984375q-0.796875 0 -1.421875 0.5q-0.609375 0.484375 -0.703125 1.40625l4.15625 0q-0.046875 -0.890625 -0.625 -1.390625q-0.5625 -0.515625 -1.40625 -0.515625zm7.630554 5.984375q-0.9375 0 -1.6875 -0.421875q-0.75 -0.421875 -1.1875 -1.203125q-0.421875 -0.78125 -0.421875 -1.84375q0 -1.046875 0.4375 -1.828125q0.4375 -0.78125 1.1875 -1.203125q0.765625 -0.421875 1.6875 -0.421875q0.9375 0 1.6875 0.421875q0.75 0.421875 1.171875 1.203125q0.4375 0.78125 0.4375 1.828125q0 1.0625 -0.4375 1.84375q-0.4375 0.78125 -1.203125 1.203125q-0.75 0.421875 -1.671875 0.421875zm0 -0.953125q0.5625 0 1.046875 -0.28125q0.5 -0.28125 0.8125 -0.84375q0.3125 -0.5625 0.3125 -1.390625q0 -0.8125 -0.3125 -1.375q-0.296875 -0.5625 -0.796875 -0.84375q-0.484375 -0.28125 -1.046875 -0.28125q-0.5625 0 -1.0625 0.28125q-0.484375 0.28125 -0.796875 0.84375q-0.3125 0.5625 -0.3125 1.375q0 0.828125 0.3125 1.390625q0.3125 0.5625 0.796875 0.84375q0.484375 0.28125 1.046875 0.28125zm7.4058533 0.953125q-1.1875 0 -1.984375 -0.59375q-0.78125 -0.609375 -0.90625 -1.625l1.140625 0q0.109375 0.515625 0.546875 0.90625q0.453125 0.375 1.21875 0.375q0.703125 0 1.03125 -0.296875q0.34375 -0.3125 0.34375 -0.71875q0 -0.609375 -0.4375 -0.796875q-0.4375 -0.203125 -1.21875 -0.359375q-0.53125 -0.109375 -1.0625 -0.3125q-0.53125 -0.203125 -0.90625 -0.5625q-0.359375 -0.375 -0.359375 -0.96875q0 -0.875 0.640625 -1.421875q0.65625 -0.546875 1.765625 -0.546875q1.046875 0 1.71875 0.53125q0.6875 0.515625 0.78125 1.484375l-1.09375 0q-0.078125 -0.5 -0.453125 -0.78125q-0.359375 -0.296875 -0.96875 -0.296875q-0.59375 0 -0.921875 0.265625q-0.328125 0.25 -0.328125 0.65625q0 0.40625 0.421875 0.640625q0.421875 0.21875 1.140625 0.375q0.609375 0.125 1.15625 0.328125q0.5625 0.1875 0.90625 0.578125q0.359375 0.375 0.359375 1.09375q0.015625 0.890625 -0.671875 1.46875q-0.6875 0.578125 -1.859375 0.578125z" fill-rule="nonzero"/><path fill="#000000" d="m218.50374 199.79619l3.703125 -8.375l-5.125 0l0 -0.953125l6.265625 0l0 0.84375l-3.65625 8.484375l-1.1875 0zm9.776581 0.15625q-1.234375 0 -2.140625 -0.59375q-0.890625 -0.609375 -1.375 -1.6875q-0.484375 -1.09375 -0.484375 -2.546875q0 -1.4375 0.484375 -2.515625q0.484375 -1.09375 1.375 -1.6875q0.90625 -0.609375 2.140625 -0.609375q1.234375 0 2.125 0.609375q0.90625 0.59375 1.375 1.6875q0.484375 1.078125 0.484375 2.515625q0 1.453125 -0.484375 2.546875q-0.46875 1.078125 -1.375 1.6875q-0.890625 0.59375 -2.125 0.59375zm0 -0.984375q0.8125 0 1.453125 -0.453125q0.65625 -0.46875 1.015625 -1.328125q0.375 -0.859375 0.375 -2.0625q0 -1.1875 -0.375 -2.046875q-0.359375 -0.859375 -1.015625 -1.3125q-0.640625 -0.453125 -1.453125 -0.453125q-0.828125 0 -1.46875 0.453125q-0.640625 0.453125 -1.015625 1.3125q-0.375 0.859375 -0.375 2.046875q0 1.203125 0.375 2.0625q0.375 0.859375 1.015625 1.328125q0.640625 0.453125 1.46875 0.453125zm9.236359 0.984375q-1.234375 0 -2.140625 -0.59375q-0.890625 -0.609375 -1.375 -1.6875q-0.484375 -1.09375 -0.484375 -2.546875q0 -1.4375 0.484375 -2.515625q0.484375 -1.09375 1.375 -1.6875q0.90625 -0.609375 2.140625 -0.609375q1.234375 0 2.125 0.609375q0.90625 0.59375 1.375 1.6875q0.484375 1.078125 0.484375 2.515625q0 1.453125 -0.484375 2.546875q-0.46875 1.078125 -1.375 1.6875q-0.890625 0.59375 -2.125 0.59375zm0 -0.984375q0.8125 0 1.453125 -0.453125q0.65625 -0.46875 1.015625 -1.328125q0.375 -0.859375 0.375 -2.0625q0 -1.1875 -0.375 -2.046875q-0.359375 -0.859375 -1.015625 -1.3125q-0.640625 -0.453125 -1.453125 -0.453125q-0.828125 0 -1.46875 0.453125q-0.640625 0.453125 -1.015625 1.3125q-0.375 0.859375 -0.375 2.046875q0 1.203125 0.375 2.0625q0.375 0.859375 1.015625 1.328125q0.640625 0.453125 1.46875 0.453125z" fill-rule="nonzero"/><path fill="#000000" d="m210.71515 215.95244q-0.9375 0 -1.703125 -0.421875q-0.75 -0.4375 -1.1875 -1.21875q-0.421875 -0.78125 -0.421875 -1.828125q0 -1.03125 0.421875 -1.8125q0.4375 -0.78125 1.1875 -1.203125q0.765625 -0.4375 1.703125 -0.4375q1.171875 0 1.984375 0.609375q0.8125 0.609375 1.015625 1.640625l-1.140625 0q-0.140625 -0.609375 -0.65625 -0.953125q-0.515625 -0.34375 -1.21875 -0.34375q-0.546875 0 -1.046875 0.28125q-0.484375 0.28125 -0.796875 0.84375q-0.3125 0.5625 -0.3125 1.375q0 0.828125 0.3125 1.390625q0.3125 0.5625 0.796875 0.859375q0.5 0.28125 1.046875 0.28125q0.703125 0 1.21875 -0.34375q0.515625 -0.34375 0.65625 -0.96875l1.140625 0q-0.203125 1.0 -1.015625 1.625q-0.8125 0.625 -1.984375 0.625zm4.56575 -0.15625l0 -9.59375l1.125 0l0 9.59375l-1.125 0zm5.161957 0.15625q-0.828125 0 -1.375 -0.28125q-0.546875 -0.28125 -0.8125 -0.734375q-0.265625 -0.46875 -0.265625 -1.015625q0 -1.015625 0.765625 -1.5625q0.78125 -0.546875 2.109375 -0.546875l1.78125 0l0 -0.078125q0 -0.875 -0.453125 -1.3125q-0.453125 -0.453125 -1.203125 -0.453125q-0.65625 0 -1.140625 0.328125q-0.46875 0.328125 -0.578125 0.953125l-1.15625 0q0.0625 -0.71875 0.484375 -1.203125q0.421875 -0.5 1.046875 -0.75q0.625 -0.265625 1.34375 -0.265625q1.375 0 2.078125 0.734375q0.703125 0.734375 0.703125 1.96875l0 4.0625l-1.0 0l-0.0625 -1.1875q-0.28125 0.5625 -0.828125 0.953125q-0.53125 0.390625 -1.4375 0.390625zm0.171875 -0.9375q0.640625 0 1.09375 -0.328125q0.453125 -0.34375 0.6875 -0.875q0.25 -0.53125 0.25 -1.125l0 -0.015625l-1.6875 0q-0.984375 0 -1.390625 0.34375q-0.40625 0.34375 -0.40625 0.84375q0 0.53125 0.375 0.84375q0.375 0.3125 1.078125 0.3125zm7.366745 0.9375q-1.1875 0 -1.984375 -0.59375q-0.78125 -0.609375 -0.90625 -1.625l1.140625 0q0.109375 0.515625 0.546875 0.90625q0.453125 0.375 1.21875 0.375q0.703125 0 1.03125 -0.296875q0.34375 -0.3125 0.34375 -0.71875q0 -0.609375 -0.4375 -0.796875q-0.4375 -0.203125 -1.21875 -0.359375q-0.53125 -0.109375 -1.0625 -0.3125q-0.53125 -0.203125 -0.90625 -0.5625q-0.359375 -0.375 -0.359375 -0.96875q0 -0.875 0.640625 -1.421875q0.65625 -0.546875 1.765625 -0.546875q1.046875 0 1.71875 0.53125q0.6875 0.515625 0.78125 1.484375l-1.09375 0q-0.078125 -0.5 -0.453125 -0.78125q-0.359375 -0.296875 -0.96875 -0.296875q-0.59375 0 -0.921875 0.265625q-0.328125 0.25 -0.328125 0.65625q0 0.40625 0.421875 0.640625q0.421875 0.21875 1.140625 0.375q0.609375 0.125 1.15625 0.328125q0.5625 0.1875 0.90625 0.578125q0.359375 0.375 0.359375 1.09375q0.015625 0.890625 -0.671875 1.46875q-0.6875 0.578125 -1.859375 0.578125zm6.664032 0q-1.1875 0 -1.984375 -0.59375q-0.78125 -0.609375 -0.90625 -1.625l1.140625 0q0.109375 0.515625 0.546875 0.90625q0.453125 0.375 1.21875 0.375q0.703125 0 1.03125 -0.296875q0.34375 -0.3125 0.34375 -0.71875q0 -0.609375 -0.4375 -0.796875q-0.4375 -0.203125 -1.21875 -0.359375q-0.53125 -0.109375 -1.0625 -0.3125q-0.53125 -0.203125 -0.90625 -0.5625q-0.359375 -0.375 -0.359375 -0.96875q0 -0.875 0.640625 -1.421875q0.65625 -0.546875 1.765625 -0.546875q1.046875 0 1.71875 0.53125q0.6875 0.515625 0.78125 1.484375l-1.09375 0q-0.078125 -0.5 -0.453125 -0.78125q-0.359375 -0.296875 -0.96875 -0.296875q-0.59375 0 -0.921875 0.265625q-0.328125 0.25 -0.328125 0.65625q0 0.40625 0.421875 0.640625q0.421875 0.21875 1.140625 0.375q0.609375 0.125 1.15625 0.328125q0.5625 0.1875 0.90625 0.578125q0.359375 0.375 0.359375 1.09375q0.015625 0.890625 -0.671875 1.46875q-0.6875 0.578125 -1.859375 0.578125zm7.101532 0q-0.9375 0 -1.671875 -0.421875q-0.734375 -0.4375 -1.15625 -1.203125q-0.421875 -0.78125 -0.421875 -1.84375q0 -1.03125 0.40625 -1.8125q0.421875 -0.78125 1.15625 -1.203125q0.75 -0.4375 1.71875 -0.4375q0.953125 0 1.65625 0.4375q0.703125 0.421875 1.078125 1.140625q0.375 0.703125 0.375 1.515625q0 0.140625 -0.015625 0.296875q0 0.140625 0 0.328125l-5.265625 0q0.03125 0.75 0.34375 1.25q0.3125 0.5 0.78125 0.765625q0.484375 0.25 1.015625 0.25q0.6875 0 1.15625 -0.3125q0.46875 -0.328125 0.6875 -0.875l1.109375 0q-0.265625 0.921875 -1.03125 1.53125q-0.75 0.59375 -1.921875 0.59375zm0 -5.984375q-0.796875 0 -1.421875 0.5q-0.609375 0.484375 -0.703125 1.40625l4.15625 0q-0.046875 -0.890625 -0.625 -1.390625q-0.5625 -0.515625 -1.40625 -0.515625zm7.146179 5.984375q-1.1875 0 -1.984375 -0.59375q-0.78125 -0.609375 -0.90625 -1.625l1.140625 0q0.109375 0.515625 0.546875 0.90625q0.453125 0.375 1.21875 0.375q0.703125 0 1.03125 -0.296875q0.34375 -0.3125 0.34375 -0.71875q0 -0.609375 -0.4375 -0.796875q-0.4375 -0.203125 -1.21875 -0.359375q-0.53125 -0.109375 -1.0625 -0.3125q-0.53125 -0.203125 -0.90625 -0.5625q-0.359375 -0.375 -0.359375 -0.96875q0 -0.875 0.640625 -1.421875q0.65625 -0.546875 1.765625 -0.546875q1.046875 0 1.71875 0.53125q0.6875 0.515625 0.78125 1.484375l-1.09375 0q-0.078125 -0.5 -0.453125 -0.78125q-0.359375 -0.296875 -0.96875 -0.296875q-0.59375 0 -0.921875 0.265625q-0.328125 0.25 -0.328125 0.65625q0 0.40625 0.421875 0.640625q0.421875 0.21875 1.140625 0.375q0.609375 0.125 1.15625 0.328125q0.5625 0.1875 0.90625 0.578125q0.359375 0.375 0.359375 1.09375q0.015625 0.890625 -0.671875 1.46875q-0.6875 0.578125 -1.859375 0.578125z" fill-rule="nonzero"/><path fill="#000000" d="m208.97508 233.73369q-0.734375 -0.703125 -1.34375 -1.65625q-0.609375 -0.953125 -0.984375 -2.140625q-0.359375 -1.1875 -0.359375 -2.578125q0 -1.390625 0.359375 -2.578125q0.375 -1.1875 0.984375 -2.140625q0.609375 -0.953125 1.34375 -1.65625l1.140625 0l0 0.109375q-1.234375 1.203125 -1.96875 2.8125q-0.734375 1.59375 -0.734375 3.453125q0 1.859375 0.734375 3.46875q0.75 1.59375 1.96875 2.796875l0 0.109375l-1.140625 0zm2.5674133 1.0l0 -9.546875l1.015625 0l0.109375 1.09375q0.3125 -0.484375 0.90625 -0.859375q0.59375 -0.390625 1.515625 -0.390625q0.984375 0 1.71875 0.453125q0.734375 0.453125 1.140625 1.234375q0.40625 0.78125 0.40625 1.78125q0 1.0 -0.40625 1.78125q-0.40625 0.78125 -1.15625 1.234375q-0.734375 0.4375 -1.71875 0.4375q-0.8125 0 -1.453125 -0.328125q-0.625 -0.328125 -0.953125 -0.9375l0 4.046875l-1.125 0zm3.40625 -3.75q0.671875 0 1.171875 -0.3125q0.515625 -0.3125 0.796875 -0.875q0.296875 -0.5625 0.296875 -1.3125q0 -0.734375 -0.296875 -1.296875q-0.28125 -0.5625 -0.796875 -0.875q-0.5 -0.3125 -1.171875 -0.3125q-0.65625 0 -1.171875 0.3125q-0.5 0.3125 -0.796875 0.875q-0.296875 0.5625 -0.296875 1.296875q0 0.75 0.296875 1.3125q0.296875 0.5625 0.796875 0.875q0.515625 0.3125 1.171875 0.3125zm4.9637756 0.8125l0 -6.609375l1.015625 0l0.09375 1.265625q0.296875 -0.65625 0.921875 -1.03125q0.625 -0.390625 1.546875 -0.390625l0 1.171875l-0.296875 0q-0.59375 0 -1.09375 0.203125q-0.484375 0.203125 -0.78125 0.703125q-0.28125 0.484375 -0.28125 1.359375l0 3.328125l-1.125 0zm5.509964 -8.078125q-0.328125 0 -0.546875 -0.21875q-0.21875 -0.21875 -0.21875 -0.546875q0 -0.328125 0.21875 -0.53125q0.21875 -0.21875 0.546875 -0.21875q0.328125 0 0.546875 0.21875q0.234375 0.203125 0.234375 0.53125q0 0.328125 -0.234375 0.546875q-0.21875 0.21875 -0.546875 0.21875zm-0.546875 8.078125l0 -6.609375l1.109375 0l0 6.609375l-1.109375 0zm4.9666595 0l-2.515625 -6.609375l1.1875 0l1.984375 5.53125l2.0 -5.53125l1.140625 0l-2.5 6.609375l-1.296875 0zm6.9074707 0.15625q-0.828125 0 -1.375 -0.28125q-0.546875 -0.28125 -0.8125 -0.734375q-0.265625 -0.46875 -0.265625 -1.015625q0 -1.015625 0.765625 -1.5625q0.78125 -0.546875 2.109375 -0.546875l1.78125 0l0 -0.078125q0 -0.875 -0.453125 -1.3125q-0.453125 -0.453125 -1.203125 -0.453125q-0.65625 0 -1.140625 0.328125q-0.46875 0.328125 -0.578125 0.953125l-1.15625 0q0.0625 -0.71875 0.484375 -1.203125q0.421875 -0.5 1.046875 -0.75q0.625 -0.265625 1.34375 -0.265625q1.375 0 2.078125 0.734375q0.703125 0.734375 0.703125 1.96875l0 4.0625l-1.0 0l-0.0625 -1.1875q-0.28125 0.5625 -0.828125 0.953125q-0.53125 0.390625 -1.4375 0.390625zm0.171875 -0.9375q0.640625 0 1.09375 -0.328125q0.453125 -0.34375 0.6875 -0.875q0.25 -0.53125 0.25 -1.125l0 -0.015625l-1.6875 0q-0.984375 0 -1.390625 0.34375q-0.40625 0.34375 -0.40625 0.84375q0 0.53125 0.375 0.84375q0.375 0.3125 1.078125 0.3125zm7.258209 0.78125q-0.90625 0 -1.421875 -0.4375q-0.515625 -0.4375 -0.515625 -1.59375l0 -3.640625l-1.15625 0l0 -0.9375l1.15625 0l0.140625 -1.59375l0.96875 0l0 1.59375l1.953125 0l0 0.9375l-1.953125 0l0 3.640625q0 0.625 0.25 0.859375q0.265625 0.21875 0.90625 0.21875l0.6875 0l0 0.953125l-1.015625 0zm5.330673 0.15625q-0.9375 0 -1.671875 -0.421875q-0.734375 -0.4375 -1.15625 -1.203125q-0.421875 -0.78125 -0.421875 -1.84375q0 -1.03125 0.40625 -1.8125q0.421875 -0.78125 1.15625 -1.203125q0.75 -0.4375 1.71875 -0.4375q0.953125 0 1.65625 0.4375q0.703125 0.421875 1.078125 1.140625q0.375 0.703125 0.375 1.515625q0 0.140625 -0.015625 0.296875q0 0.140625 0 0.328125l-5.265625 0q0.03125 0.75 0.34375 1.25q0.3125 0.5 0.78125 0.765625q0.484375 0.25 1.015625 0.25q0.6875 0 1.15625 -0.3125q0.46875 -0.328125 0.6875 -0.875l1.109375 0q-0.265625 0.921875 -1.03125 1.53125q-0.75 0.59375 -1.921875 0.59375zm0 -5.984375q-0.796875 0 -1.421875 0.5q-0.609375 0.484375 -0.703125 1.40625l4.15625 0q-0.046875 -0.890625 -0.625 -1.390625q-0.5625 -0.515625 -1.40625 -0.515625z" fill-rule="nonzero"/><path fill="#000000" d="m210.02298 247.79619l0 -9.59375l1.125 0l0 9.59375l-1.125 0zm5.161957 0.15625q-0.828125 0 -1.375 -0.28125q-0.546875 -0.28125 -0.8125 -0.734375q-0.265625 -0.46875 -0.265625 -1.015625q0 -1.015625 0.765625 -1.5625q0.78125 -0.546875 2.109375 -0.546875l1.78125 0l0 -0.078125q0 -0.875 -0.453125 -1.3125q-0.453125 -0.453125 -1.203125 -0.453125q-0.65625 0 -1.140625 0.328125q-0.46875 0.328125 -0.578125 0.953125l-1.15625 0q0.0625 -0.71875 0.484375 -1.203125q0.421875 -0.5 1.046875 -0.75q0.625 -0.265625 1.34375 -0.265625q1.375 0 2.078125 0.734375q0.703125 0.734375 0.703125 1.96875l0 4.0625l-1.0 0l-0.0625 -1.1875q-0.28125 0.5625 -0.828125 0.953125q-0.53125 0.390625 -1.4375 0.390625zm0.171875 -0.9375q0.640625 0 1.09375 -0.328125q0.453125 -0.34375 0.6875 -0.875q0.25 -0.53125 0.25 -1.125l0 -0.015625l-1.6875 0q-0.984375 0 -1.390625 0.34375q-0.40625 0.34375 -0.40625 0.84375q0 0.53125 0.375 0.84375q0.375 0.3125 1.078125 0.3125zm8.366745 0.9375q-0.8125 0 -1.453125 -0.328125q-0.625 -0.328125 -0.953125 -0.9375l-0.109375 1.109375l-1.015625 0l0 -9.59375l1.125 0l0 4.078125q0.3125 -0.484375 0.90625 -0.859375q0.59375 -0.390625 1.515625 -0.390625q0.984375 0 1.71875 0.453125q0.734375 0.453125 1.140625 1.234375q0.40625 0.78125 0.40625 1.78125q0 1.0 -0.40625 1.78125q-0.40625 0.78125 -1.15625 1.234375q-0.734375 0.4375 -1.71875 0.4375zm-0.125 -0.96875q0.671875 0 1.171875 -0.3125q0.515625 -0.3125 0.796875 -0.875q0.296875 -0.5625 0.296875 -1.3125q0 -0.734375 -0.296875 -1.296875q-0.28125 -0.5625 -0.796875 -0.875q-0.5 -0.3125 -1.171875 -0.3125q-0.65625 0 -1.171875 0.3125q-0.5 0.3125 -0.796875 0.875q-0.296875 0.5625 -0.296875 1.296875q0 0.75 0.296875 1.3125q0.296875 0.5625 0.796875 0.875q0.515625 0.3125 1.171875 0.3125zm7.9325256 0.96875q-0.9375 0 -1.671875 -0.421875q-0.734375 -0.4375 -1.15625 -1.203125q-0.421875 -0.78125 -0.421875 -1.84375q0 -1.03125 0.40625 -1.8125q0.421875 -0.78125 1.15625 -1.203125q0.75 -0.4375 1.71875 -0.4375q0.953125 0 1.65625 0.4375q0.703125 0.421875 1.078125 1.140625q0.375 0.703125 0.375 1.515625q0 0.140625 -0.015625 0.296875q0 0.140625 0 0.328125l-5.265625 0q0.03125 0.75 0.34375 1.25q0.3125 0.5 0.78125 0.765625q0.484375 0.25 1.015625 0.25q0.6875 0 1.15625 -0.3125q0.46875 -0.328125 0.6875 -0.875l1.109375 0q-0.265625 0.921875 -1.03125 1.53125q-0.75 0.59375 -1.921875 0.59375zm0 -5.984375q-0.796875 0 -1.421875 0.5q-0.609375 0.484375 -0.703125 1.40625l4.15625 0q-0.046875 -0.890625 -0.625 -1.390625q-0.5625 -0.515625 -1.40625 -0.515625zm4.614929 5.828125l0 -9.59375l1.125 0l0 9.59375l-1.125 0zm5.490082 0.15625q-1.1875 0 -1.984375 -0.59375q-0.78125 -0.609375 -0.90625 -1.625l1.140625 0q0.109375 0.515625 0.546875 0.90625q0.453125 0.375 1.21875 0.375q0.703125 0 1.03125 -0.296875q0.34375 -0.3125 0.34375 -0.71875q0 -0.609375 -0.4375 -0.796875q-0.4375 -0.203125 -1.21875 -0.359375q-0.53125 -0.109375 -1.0625 -0.3125q-0.53125 -0.203125 -0.90625 -0.5625q-0.359375 -0.375 -0.359375 -0.96875q0 -0.875 0.640625 -1.421875q0.65625 -0.546875 1.765625 -0.546875q1.046875 0 1.71875 0.53125q0.6875 0.515625 0.78125 1.484375l-1.09375 0q-0.078125 -0.5 -0.453125 -0.78125q-0.359375 -0.296875 -0.96875 -0.296875q-0.59375 0 -0.921875 0.265625q-0.328125 0.25 -0.328125 0.65625q0 0.40625 0.421875 0.640625q0.421875 0.21875 1.140625 0.375q0.609375 0.125 1.15625 0.328125q0.5625 0.1875 0.90625 0.578125q0.359375 0.375 0.359375 1.09375q0.015625 0.890625 -0.671875 1.46875q-0.6875 0.578125 -1.859375 0.578125zm3.6709137 1.78125l0 -0.109375q1.21875 -1.203125 1.96875 -2.796875q0.75 -1.609375 0.75 -3.46875q0 -1.859375 -0.75 -3.453125q-0.734375 -1.609375 -1.953125 -2.8125l0 -0.109375l1.140625 0q0.734375 0.703125 1.328125 1.65625q0.609375 0.953125 0.96875 2.140625q0.375 1.1875 0.375 2.578125q0 1.390625 -0.375 2.578125q-0.359375 1.1875 -0.96875 2.140625q-0.59375 0.953125 -1.328125 1.65625l-1.15625 0z" fill-rule="nonzero"/><path fill="#000000" fill-opacity="0.0" d="m0 3.6732283l82.99213 0l0 64.62992l-82.99213 0z" fill-rule="evenodd"/><path fill="#33e0c8" d="m25.244072 30.593227l0 -11.765625l-3.890625 0l0 -1.296875l9.359375 0l0 1.296875l-3.90625 0l0 11.765625l-1.5625 0zm6.2272644 0l0 -9.25l1.421875 0l0.125 1.765625q0.4375 -0.90625 1.3125 -1.453125q0.875 -0.546875 2.171875 -0.546875l0 1.65625l-0.4375 0q-0.8125 0 -1.515625 0.296875q-0.6875 0.28125 -1.09375 0.96875q-0.40625 0.6875 -0.40625 1.890625l0 4.671875l-1.578125 0zm9.850342 0.21875q-1.15625 0 -1.921875 -0.390625q-0.765625 -0.390625 -1.140625 -1.03125q-0.359375 -0.65625 -0.359375 -1.421875q0 -1.421875 1.078125 -2.1875q1.078125 -0.765625 2.953125 -0.765625l2.5 0l0 -0.109375q0 -1.21875 -0.640625 -1.84375q-0.640625 -0.625 -1.703125 -0.625q-0.90625 0 -1.578125 0.46875q-0.65625 0.453125 -0.828125 1.328125l-1.59375 0q0.09375 -1.015625 0.671875 -1.703125q0.59375 -0.6875 1.46875 -1.046875q0.875 -0.375 1.859375 -0.375q1.953125 0 2.921875 1.046875q0.984375 1.03125 0.984375 2.75l0 5.6875l-1.40625 0l-0.09375 -1.65625q-0.390625 0.78125 -1.140625 1.328125q-0.75 0.546875 -2.03125 0.546875zm0.25 -1.3125q0.890625 0 1.53125 -0.46875q0.65625 -0.46875 0.984375 -1.21875q0.34375 -0.75 0.34375 -1.5625l0 -0.015625l-2.375 0q-1.375 0 -1.953125 0.46875q-0.5625 0.46875 -0.5625 1.1875q0 0.71875 0.53125 1.171875q0.53125 0.4375 1.5 0.4375zm7.718033 -10.21875q-0.46875 0 -0.78125 -0.296875q-0.296875 -0.3125 -0.296875 -0.78125q0 -0.4375 0.296875 -0.734375q0.3125 -0.3125 0.78125 -0.3125q0.453125 0 0.765625 0.3125q0.328125 0.296875 0.328125 0.734375q0 0.46875 -0.328125 0.78125q-0.3125 0.296875 -0.765625 0.296875zm-0.78125 11.3125l0 -9.25l1.5625 0l0 9.25l-1.5625 0zm4.286972 0l0 -9.25l1.421875 0l0.09375 1.65625q0.453125 -0.875 1.28125 -1.375q0.84375 -0.515625 1.90625 -0.515625q1.640625 0 2.625 1.0q0.984375 1.0 0.984375 3.078125l0 5.40625l-1.578125 0l0 -5.25q0 -2.890625 -2.375 -2.890625q-1.203125 0 -2.0 0.875q-0.78125 0.859375 -0.78125 2.46875l0 4.796875l-1.578125 0z" fill-rule="nonzero"/><path fill="#33e0c8" d="m16.995872 52.993225l-4.90625 -13.0625l1.703125 0l4.125 11.40625l4.15625 -11.40625l1.65625 0l-4.90625 13.0625l-1.828125 0zm9.384247 -11.3125q-0.46875 0 -0.78125 -0.296875q-0.296875 -0.3125 -0.296875 -0.78125q0 -0.4375 0.296875 -0.734375q0.3125 -0.3125 0.78125 -0.3125q0.453125 0 0.765625 0.3125q0.328125 0.296875 0.328125 0.734375q0 0.46875 -0.328125 0.78125q-0.3125 0.296875 -0.765625 0.296875zm-0.78125 11.3125l0 -9.25l1.5625 0l0 9.25l-1.5625 0zm8.490097 0.21875q-1.375 0 -2.421875 -0.625q-1.03125 -0.640625 -1.609375 -1.734375q-0.5625 -1.109375 -0.5625 -2.5q0 -1.40625 0.578125 -2.5q0.578125 -1.09375 1.609375 -1.71875q1.03125 -0.625 2.421875 -0.625q1.140625 0 2.015625 0.46875q0.875 0.46875 1.359375 1.3125l0 -5.734375l1.578125 0l0 13.4375l-1.421875 0l-0.15625 -1.53125q-0.4375 0.671875 -1.28125 1.21875q-0.84375 0.53125 -2.109375 0.53125zm0.171875 -1.359375q0.921875 0 1.640625 -0.4375q0.71875 -0.4375 1.125 -1.21875q0.40625 -0.78125 0.40625 -1.828125q0 -1.046875 -0.40625 -1.828125q-0.40625 -0.78125 -1.125 -1.21875q-0.71875 -0.4375 -1.640625 -0.4375q-0.921875 0 -1.640625 0.4375q-0.71875 0.4375 -1.125 1.21875q-0.390625 0.78125 -0.390625 1.828125q0 1.046875 0.390625 1.828125q0.40625 0.78125 1.125 1.21875q0.71875 0.4375 1.640625 0.4375zm11.5130005 1.359375q-1.328125 0 -2.359375 -0.59375q-1.015625 -0.609375 -1.609375 -1.6875q-0.59375 -1.09375 -0.59375 -2.5625q0 -1.453125 0.578125 -2.546875q0.578125 -1.09375 1.609375 -1.703125q1.046875 -0.609375 2.40625 -0.609375q1.34375 0 2.3125 0.609375q0.984375 0.609375 1.5 1.609375q0.53125 0.984375 0.53125 2.109375q0 0.21875 -0.015625 0.421875q0 0.203125 0 0.46875l-7.375 0q0.0625 1.0625 0.5 1.765625q0.4375 0.6875 1.09375 1.046875q0.671875 0.359375 1.421875 0.359375q0.96875 0 1.609375 -0.453125q0.65625 -0.453125 0.953125 -1.21875l1.5625 0q-0.375 1.296875 -1.4375 2.140625q-1.046875 0.84375 -2.6875 0.84375zm0 -8.375q-1.125 0 -2.0 0.6875q-0.859375 0.671875 -0.984375 1.984375l5.8125 0q-0.046875 -1.25 -0.859375 -1.953125q-0.796875 -0.71875 -1.96875 -0.71875zm10.662277 8.375q-1.296875 0 -2.34375 -0.59375q-1.046875 -0.59375 -1.65625 -1.6875q-0.609375 -1.09375 -0.609375 -2.5625q0 -1.46875 0.609375 -2.5625q0.625 -1.09375 1.671875 -1.6875q1.0625 -0.609375 2.375 -0.609375q1.296875 0 2.34375 0.609375q1.046875 0.59375 1.65625 1.6875q0.609375 1.09375 0.609375 2.5625q0 1.46875 -0.625 2.5625q-0.609375 1.09375 -1.671875 1.6875q-1.046875 0.59375 -2.359375 0.59375zm0 -1.34375q0.8125 0 1.5 -0.390625q0.6875 -0.390625 1.109375 -1.171875q0.4375 -0.78125 0.4375 -1.9375q0 -1.15625 -0.421875 -1.9375q-0.421875 -0.78125 -1.109375 -1.171875q-0.6875 -0.40625 -1.46875 -0.40625q-0.8125 0 -1.5 0.40625q-0.6875 0.390625 -1.125 1.171875q-0.421875 0.78125 -0.421875 1.9375q0 1.15625 0.421875 1.9375q0.4375 0.78125 1.109375 1.171875q0.6875 0.390625 1.46875 0.390625zm10.372635 1.34375q-1.65625 0 -2.765625 -0.828125q-1.09375 -0.84375 -1.28125 -2.28125l1.609375 0q0.140625 0.71875 0.765625 1.265625q0.625 0.53125 1.6875 0.53125q1.0 0 1.453125 -0.421875q0.46875 -0.421875 0.46875 -1.0q0 -0.84375 -0.609375 -1.125q-0.59375 -0.28125 -1.703125 -0.5q-0.734375 -0.15625 -1.484375 -0.421875q-0.75 -0.28125 -1.25 -0.796875q-0.5 -0.515625 -0.5 -1.359375q0 -1.203125 0.890625 -1.984375q0.90625 -0.78125 2.46875 -0.78125q1.46875 0 2.40625 0.75q0.9375 0.734375 1.09375 2.09375l-1.546875 0q-0.09375 -0.703125 -0.609375 -1.109375q-0.515625 -0.40625 -1.375 -0.40625q-0.828125 0 -1.296875 0.359375q-0.453125 0.359375 -0.453125 0.9375q0 0.546875 0.578125 0.875q0.59375 0.3125 1.609375 0.53125q0.859375 0.1875 1.625 0.46875q0.78125 0.265625 1.265625 0.796875q0.5 0.53125 0.5 1.53125q0.015625 1.25 -0.953125 2.0625q-0.953125 0.8125 -2.59375 0.8125z" fill-rule="nonzero"/><path fill="#000000" fill-opacity="0.0" d="m96.338585 3.6732283l82.99212 0l0 64.62992l-82.99212 0z" fill-rule="evenodd"/><path fill="#f9526b" d="m130.32126 30.593227l-4.9062424 -13.0625l1.703125 0l4.1249924 11.40625l4.15625 -11.40625l1.65625 0l-4.90625 13.0625l-1.828125 0zm10.463913 0.21875q-1.15625 0 -1.921875 -0.390625q-0.765625 -0.390625 -1.140625 -1.03125q-0.359375 -0.65625 -0.359375 -1.421875q0 -1.421875 1.078125 -2.1875q1.078125 -0.765625 2.953125 -0.765625l2.5 0l0 -0.109375q0 -1.21875 -0.640625 -1.84375q-0.640625 -0.625 -1.703125 -0.625q-0.90625 0 -1.578125 0.46875q-0.65625 0.453125 -0.828125 1.328125l-1.59375 0q0.09375 -1.015625 0.671875 -1.703125q0.59375 -0.6875 1.46875 -1.046875q0.875 -0.375 1.859375 -0.375q1.953125 0 2.921875 1.046875q0.984375 1.03125 0.984375 2.75l0 5.6875l-1.40625 0l-0.09375 -1.65625q-0.390625 0.78125 -1.140625 1.328125q-0.75 0.546875 -2.03125 0.546875zm0.25 -1.3125q0.890625 0 1.53125 -0.46875q0.65625 -0.46875 0.984375 -1.21875q0.34375 -0.75 0.34375 -1.5625l0 -0.015625l-2.375 0q-1.375 0 -1.953125 0.46875q-0.5625 0.46875 -0.5625 1.1875q0 0.71875 0.53125 1.171875q0.53125 0.4375 1.5 0.4375zm6.764908 1.09375l0 -13.4375l1.578125 0l0 13.4375l-1.578125 0z" fill-rule="nonzero"/><path fill="#f9526b" d="m113.33446 52.993225l-4.90625 -13.0625l1.703125 0l4.125 11.40625l4.15625 -11.40625l1.65625 0l-4.90625 13.0625l-1.828125 0zm9.384247 -11.3125q-0.46875 0 -0.78125 -0.296875q-0.296875 -0.3125 -0.296875 -0.78125q0 -0.4375 0.296875 -0.734375q0.3125 -0.3125 0.78125 -0.3125q0.453125 0 0.765625 0.3125q0.328125 0.296875 0.328125 0.734375q0 0.46875 -0.328125 0.78125q-0.3125 0.296875 -0.765625 0.296875zm-0.78125 11.3125l0 -9.25l1.5625 0l0 9.25l-1.5625 0zm8.490097 0.21875q-1.375 0 -2.421875 -0.625q-1.03125 -0.640625 -1.609375 -1.734375q-0.5625 -1.109375 -0.5625 -2.5q0 -1.40625 0.578125 -2.5q0.578125 -1.09375 1.609375 -1.71875q1.03125 -0.625 2.421875 -0.625q1.140625 0 2.015625 0.46875q0.875 0.46875 1.359375 1.3125l0 -5.734375l1.578125 0l0 13.4375l-1.421875 0l-0.15625 -1.53125q-0.4375 0.671875 -1.28125 1.21875q-0.84375 0.53125 -2.109375 0.53125zm0.171875 -1.359375q0.921875 0 1.640625 -0.4375q0.71875 -0.4375 1.125 -1.21875q0.40625 -0.78125 0.40625 -1.828125q0 -1.046875 -0.40625 -1.828125q-0.40625 -0.78125 -1.125 -1.21875q-0.71875 -0.4375 -1.640625 -0.4375q-0.921875 0 -1.640625 0.4375q-0.71875 0.4375 -1.125 1.21875q-0.390625 0.78125 -0.390625 1.828125q0 1.046875 0.390625 1.828125q0.40625 0.78125 1.125 1.21875q0.71875 0.4375 1.640625 0.4375zm11.5130005 1.359375q-1.328125 0 -2.359375 -0.59375q-1.015625 -0.609375 -1.609375 -1.6875q-0.59375 -1.09375 -0.59375 -2.5625q0 -1.453125 0.578125 -2.546875q0.578125 -1.09375 1.609375 -1.703125q1.046875 -0.609375 2.40625 -0.609375q1.34375 0 2.3125 0.609375q0.984375 0.609375 1.5 1.609375q0.53125 0.984375 0.53125 2.109375q0 0.21875 -0.015625 0.421875q0 0.203125 0 0.46875l-7.375 0q0.0625 1.0625 0.5 1.765625q0.4375 0.6875 1.09375 1.046875q0.671875 0.359375 1.421875 0.359375q0.96875 0 1.609375 -0.453125q0.65625 -0.453125 0.953125 -1.21875l1.5625 0q-0.375 1.296875 -1.4375 2.140625q-1.046875 0.84375 -2.6875 0.84375zm0 -8.375q-1.125 0 -2.0 0.6875q-0.859375 0.671875 -0.984375 1.984375l5.8125 0q-0.046875 -1.25 -0.859375 -1.953125q-0.796875 -0.71875 -1.96875 -0.71875zm10.662277 8.375q-1.296875 0 -2.34375 -0.59375q-1.046875 -0.59375 -1.65625 -1.6875q-0.609375 -1.09375 -0.609375 -2.5625q0 -1.46875 0.609375 -2.5625q0.625 -1.09375 1.671875 -1.6875q1.0625 -0.609375 2.375 -0.609375q1.296875 0 2.34375 0.609375q1.046875 0.59375 1.65625 1.6875q0.609375 1.09375 0.609375 2.5625q0 1.46875 -0.625 2.5625q-0.609375 1.09375 -1.671875 1.6875q-1.046875 0.59375 -2.359375 0.59375zm0 -1.34375q0.8125 0 1.5 -0.390625q0.6875 -0.390625 1.109375 -1.171875q0.4375 -0.78125 0.4375 -1.9375q0 -1.15625 -0.421875 -1.9375q-0.421875 -0.78125 -1.109375 -1.171875q-0.6875 -0.40625 -1.46875 -0.40625q-0.8125 0 -1.5 0.40625q-0.6875 0.390625 -1.125 1.171875q-0.421875 0.78125 -0.421875 1.9375q0 1.15625 0.421875 1.9375q0.4375 0.78125 1.109375 1.171875q0.6875 0.390625 1.46875 0.390625zm10.372635 1.34375q-1.65625 0 -2.765625 -0.828125q-1.09375 -0.84375 -1.28125 -2.28125l1.609375 0q0.140625 0.71875 0.765625 1.265625q0.625 0.53125 1.6875 0.53125q1.0 0 1.453125 -0.421875q0.46875 -0.421875 0.46875 -1.0q0 -0.84375 -0.609375 -1.125q-0.59375 -0.28125 -1.703125 -0.5q-0.734375 -0.15625 -1.484375 -0.421875q-0.75 -0.28125 -1.25 -0.796875q-0.5 -0.515625 -0.5 -1.359375q0 -1.203125 0.890625 -1.984375q0.90625 -0.78125 2.46875 -0.78125q1.46875 0 2.40625 0.75q0.9375 0.734375 1.09375 2.09375l-1.546875 0q-0.09375 -0.703125 -0.609375 -1.109375q-0.515625 -0.40625 -1.375 -0.40625q-0.828125 0 -1.296875 0.359375q-0.453125 0.359375 -0.453125 0.9375q0 0.546875 0.578125 0.875q0.59375 0.3125 1.609375 0.53125q0.859375 0.1875 1.625 0.46875q0.78125 0.265625 1.265625 0.796875q0.5 0.53125 0.5 1.53125q0.015625 1.25 -0.953125 2.0625q-0.953125 0.8125 -2.59375 0.8125z" fill-rule="nonzero"/><path fill="#000000" fill-opacity="0.0" d="m187.93701 3.6732283l82.99213 0l0 64.62992l-82.99213 0z" fill-rule="evenodd"/><path fill="#ff5f19" d="m216.1104 30.593227l0 -11.765625l-3.890625 0l0 -1.296875l9.359375 0l0 1.296875l-3.90625 0l0 11.765625l-1.5625 0zm9.783142 0.21875q-1.328125 0 -2.359375 -0.59375q-1.015625 -0.609375 -1.609375 -1.6875q-0.59375 -1.09375 -0.59375 -2.5625q0 -1.453125 0.578125 -2.546875q0.578125 -1.09375 1.609375 -1.703125q1.046875 -0.609375 2.40625 -0.609375q1.34375 0 2.3125 0.609375q0.984375 0.609375 1.5 1.609375q0.53125 0.984375 0.53125 2.109375q0 0.21875 -0.015625 0.421875q0 0.203125 0 0.46875l-7.375 0q0.0625 1.0625 0.5 1.765625q0.4375 0.6875 1.09375 1.046875q0.671875 0.359375 1.421875 0.359375q0.96875 0 1.609375 -0.453125q0.65625 -0.453125 0.953125 -1.21875l1.5625 0q-0.375 1.296875 -1.4375 2.140625q-1.046875 0.84375 -2.6875 0.84375zm0 -8.375q-1.125 0 -2.0 0.6875q-0.859375 0.671875 -0.984375 1.984375l5.8125 0q-0.046875 -1.25 -0.859375 -1.953125q-0.796875 -0.71875 -1.96875 -0.71875zm9.990402 8.375q-1.65625 0 -2.765625 -0.828125q-1.09375 -0.84375 -1.28125 -2.28125l1.609375 0q0.140625 0.71875 0.765625 1.265625q0.625 0.53125 1.6875 0.53125q1.0 0 1.453125 -0.421875q0.46875 -0.421875 0.46875 -1.0q0 -0.84375 -0.609375 -1.125q-0.59375 -0.28125 -1.703125 -0.5q-0.734375 -0.15625 -1.484375 -0.421875q-0.75 -0.28125 -1.25 -0.796875q-0.5 -0.515625 -0.5 -1.359375q0 -1.203125 0.890625 -1.984375q0.90625 -0.78125 2.46875 -0.78125q1.46875 0 2.40625 0.75q0.9375 0.734375 1.09375 2.09375l-1.546875 0q-0.09375 -0.703125 -0.609375 -1.109375q-0.515625 -0.40625 -1.375 -0.40625q-0.828125 0 -1.296875 0.359375q-0.453125 0.359375 -0.453125 0.9375q0 0.546875 0.578125 0.875q0.59375 0.3125 1.609375 0.53125q0.859375 0.1875 1.625 0.46875q0.78125 0.265625 1.265625 0.796875q0.5 0.53125 0.5 1.53125q0.015625 1.25 -0.953125 2.0625q-0.953125 0.8125 -2.59375 0.8125zm9.02684 -0.21875q-1.265625 0 -2.0 -0.609375q-0.71875 -0.625 -0.71875 -2.21875l0 -5.09375l-1.609375 0l0 -1.328125l1.609375 0l0.203125 -2.21875l1.359375 0l0 2.21875l2.734375 0l0 1.328125l-2.734375 0l0 5.09375q0 0.875 0.359375 1.1875q0.359375 0.296875 1.25 0.296875l0.96875 0l0 1.34375l-1.421875 0z" fill-rule="nonzero"/><path fill="#ff5f19" d="m204.93288 52.993225l-4.90625 -13.0625l1.703125 0l4.125 11.40625l4.15625 -11.40625l1.65625 0l-4.90625 13.0625l-1.828125 0zm9.384247 -11.3125q-0.46875 0 -0.78125 -0.296875q-0.296875 -0.3125 -0.296875 -0.78125q0 -0.4375 0.296875 -0.734375q0.3125 -0.3125 0.78125 -0.3125q0.453125 0 0.765625 0.3125q0.328125 0.296875 0.328125 0.734375q0 0.46875 -0.328125 0.78125q-0.3125 0.296875 -0.765625 0.296875zm-0.78125 11.3125l0 -9.25l1.5625 0l0 9.25l-1.5625 0zm8.490097 0.21875q-1.375 0 -2.421875 -0.625q-1.03125 -0.640625 -1.609375 -1.734375q-0.5625 -1.109375 -0.5625 -2.5q0 -1.40625 0.578125 -2.5q0.578125 -1.09375 1.609375 -1.71875q1.03125 -0.625 2.421875 -0.625q1.140625 0 2.015625 0.46875q0.875 0.46875 1.359375 1.3125l0 -5.734375l1.578125 0l0 13.4375l-1.421875 0l-0.15625 -1.53125q-0.4375 0.671875 -1.28125 1.21875q-0.84375 0.53125 -2.109375 0.53125zm0.171875 -1.359375q0.921875 0 1.640625 -0.4375q0.71875 -0.4375 1.125 -1.21875q0.40625 -0.78125 0.40625 -1.828125q0 -1.046875 -0.40625 -1.828125q-0.40625 -0.78125 -1.125 -1.21875q-0.71875 -0.4375 -1.640625 -0.4375q-0.921875 0 -1.640625 0.4375q-0.71875 0.4375 -1.125 1.21875q-0.390625 0.78125 -0.390625 1.828125q0 1.046875 0.390625 1.828125q0.40625 0.78125 1.125 1.21875q0.71875 0.4375 1.640625 0.4375zm11.5130005 1.359375q-1.328125 0 -2.359375 -0.59375q-1.015625 -0.609375 -1.609375 -1.6875q-0.59375 -1.09375 -0.59375 -2.5625q0 -1.453125 0.578125 -2.546875q0.578125 -1.09375 1.609375 -1.703125q1.046875 -0.609375 2.40625 -0.609375q1.34375 0 2.3125 0.609375q0.984375 0.609375 1.5 1.609375q0.53125 0.984375 0.53125 2.109375q0 0.21875 -0.015625 0.421875q0 0.203125 0 0.46875l-7.375 0q0.0625 1.0625 0.5 1.765625q0.4375 0.6875 1.09375 1.046875q0.671875 0.359375 1.421875 0.359375q0.96875 0 1.609375 -0.453125q0.65625 -0.453125 0.953125 -1.21875l1.5625 0q-0.375 1.296875 -1.4375 2.140625q-1.046875 0.84375 -2.6875 0.84375zm0 -8.375q-1.125 0 -2.0 0.6875q-0.859375 0.671875 -0.984375 1.984375l5.8125 0q-0.046875 -1.25 -0.859375 -1.953125q-0.796875 -0.71875 -1.96875 -0.71875zm10.662277 8.375q-1.296875 0 -2.34375 -0.59375q-1.046875 -0.59375 -1.65625 -1.6875q-0.609375 -1.09375 -0.609375 -2.5625q0 -1.46875 0.609375 -2.5625q0.625 -1.09375 1.671875 -1.6875q1.0625 -0.609375 2.375 -0.609375q1.296875 0 2.34375 0.609375q1.046875 0.59375 1.65625 1.6875q0.609375 1.09375 0.609375 2.5625q0 1.46875 -0.625 2.5625q-0.609375 1.09375 -1.671875 1.6875q-1.046875 0.59375 -2.359375 0.59375zm0 -1.34375q0.8125 0 1.5 -0.390625q0.6875 -0.390625 1.109375 -1.171875q0.4375 -0.78125 0.4375 -1.9375q0 -1.15625 -0.421875 -1.9375q-0.421875 -0.78125 -1.109375 -1.171875q-0.6875 -0.40625 -1.46875 -0.40625q-0.8125 0 -1.5 0.40625q-0.6875 0.390625 -1.125 1.171875q-0.421875 0.78125 -0.421875 1.9375q0 1.15625 0.421875 1.9375q0.4375 0.78125 1.109375 1.171875q0.6875 0.390625 1.46875 0.390625zm10.372635 1.34375q-1.65625 0 -2.765625 -0.828125q-1.09375 -0.84375 -1.28125 -2.28125l1.609375 0q0.140625 0.71875 0.765625 1.265625q0.625 0.53125 1.6875 0.53125q1.0 0 1.453125 -0.421875q0.46875 -0.421875 0.46875 -1.0q0 -0.84375 -0.609375 -1.125q-0.59375 -0.28125 -1.703125 -0.5q-0.734375 -0.15625 -1.484375 -0.421875q-0.75 -0.28125 -1.25 -0.796875q-0.5 -0.515625 -0.5 -1.359375q0 -1.203125 0.890625 -1.984375q0.90625 -0.78125 2.46875 -0.78125q1.46875 0 2.40625 0.75q0.9375 0.734375 1.09375 2.09375l-1.546875 0q-0.09375 -0.703125 -0.609375 -1.109375q-0.515625 -0.40625 -1.375 -0.40625q-0.828125 0 -1.296875 0.359375q-0.453125 0.359375 -0.453125 0.9375q0 0.546875 0.578125 0.875q0.59375 0.3125 1.609375 0.53125q0.859375 0.1875 1.625 0.46875q0.78125 0.265625 1.265625 0.796875q0.5 0.53125 0.5 1.53125q0.015625 1.25 -0.953125 2.0625q-0.953125 0.8125 -2.59375 0.8125z" fill-rule="nonzero"/></g></svg>