<svg version="1.1" viewBox="0.0 0.0 423.4514435695538 280.76640419947506" fill="none" stroke="none" stroke-linecap="square" stroke-miterlimit="10" xmlns:xlink="http://www.w3.org/1999/xlink" xmlns="http://www.w3.org/2000/svg"><clipPath id="p.0"><path d="m0 0l423.45145 0l0 280.76642l-423.45145 0l0 -280.76642z" clip-rule="nonzero"/></clipPath><g clip-path="url(#p.0)"><path fill="#000000" fill-opacity="0.0" d="m0 0l423.45145 0l0 280.76642l-423.45145 0z" fill-rule="evenodd"/><path fill="#49ebd0" d="m130.39633 86.21654l82.99213 0l0 85.38582l-82.99213 0z" fill-rule="evenodd"/><path fill="#000000" d="m160.62434 141.02007q-2.453125 0 -4.28125 -0.890625q-1.828125 -0.90625 -2.828125 -2.5q-0.984375 -1.609375 -0.984375 -3.71875l2.8125 0q0 1.3125 0.609375 2.421875q0.609375 1.09375 1.78125 1.75q1.171875 0.65625 2.890625 0.65625q2.28125 0 3.515625 -1.078125q1.25 -1.09375 1.25 -2.734375q0 -1.34375 -0.578125 -2.15625q-0.5625 -0.8125 -1.546875 -1.328125q-0.96875 -0.515625 -2.234375 -0.890625q-1.265625 -0.390625 -2.640625 -0.859375q-2.59375 -0.90625 -3.84375 -2.2343674q-1.25 -1.328125 -1.25 -3.46875q-0.03125 -1.796875 0.828125 -3.1875q0.875 -1.390625 2.453125 -2.171875q1.59375 -0.78125 3.765625 -0.78125q2.140625 0 3.71875 0.796875q1.59375 0.796875 2.46875 2.203125q0.875 1.40625 0.90625 3.203125l-2.8125 0q0 -0.921875 -0.484375 -1.828125q-0.46875 -0.921875 -1.453125 -1.5q-0.96875 -0.578125 -2.4375 -0.578125q-1.828125 -0.03125 -3.0 0.9375q-1.171875 0.953125 -1.171875 2.65625q0 1.4375 0.8125 2.203125q0.828125 0.765625 2.296875 1.265625q1.46875 0.5 3.390625 1.1406174q1.609375 0.5625 2.875 1.34375q1.28125 0.765625 2.0 1.984375q0.734375 1.203125 0.734375 3.09375q0 1.609375 -0.84375 3.03125q-0.828125 1.421875 -2.515625 2.328125q-1.671875 0.890625 -4.203125 0.890625zm21.183533 0q-3.296875 0 -5.6875 -1.453125q-2.375 -1.46875 -3.6875 -4.078125q-1.3125 -2.609375 -1.3125 -6.0625q0 -3.4218674 1.3125 -6.0312424q1.3125 -2.609375 3.6875 -4.078125q2.390625 -1.46875 5.6875 -1.46875q3.84375 0 6.25 1.84375q2.421875 1.828125 3.09375 5.125l-2.96875 0q-0.515625 -2.078125 -2.109375 -3.34375q-1.578125 -1.265625 -4.265625 -1.265625q-2.390625 0 -4.1875 1.109375q-1.796875 1.109375 -2.78125 3.171875q-0.96875 2.0625 -0.96875 4.9374924q0 2.890625 0.96875 4.953125q0.984375 2.0625 2.78125 3.171875q1.796875 1.09375 4.1875 1.09375q2.6875 0 4.265625 -1.234375q1.59375 -1.234375 2.109375 -3.28125l2.96875 0q-0.671875 3.234375 -3.09375 5.0625q-2.40625 1.828125 -6.25 1.828125z" fill-rule="nonzero"/><path fill="#f9526b" d="m224.36482 86.21654l82.99214 0l0 85.38582l-82.99214 0z" fill-rule="evenodd"/><path fill="#000000" d="m254.59285 141.02007q-2.453125 0 -4.28125 -0.890625q-1.828125 -0.90625 -2.828125 -2.5q-0.984375 -1.609375 -0.984375 -3.71875l2.8125 0q0 1.3125 0.609375 2.421875q0.609375 1.09375 1.78125 1.75q1.171875 0.65625 2.890625 0.65625q2.2812347 0 3.5156097 -1.078125q1.25 -1.09375 1.25 -2.734375q0 -1.34375 -0.578125 -2.15625q-0.5625 -0.8125 -1.546875 -1.328125q-0.96875 -0.515625 -2.2343597 -0.890625q-1.265625 -0.390625 -2.640625 -0.859375q-2.59375 -0.90625 -3.84375 -2.2343674q-1.25 -1.328125 -1.25 -3.46875q-0.03125 -1.796875 0.828125 -3.1875q0.875 -1.390625 2.453125 -2.171875q1.59375 -0.78125 3.765625 -0.78125q2.1406097 0 3.7187347 0.796875q1.59375 0.796875 2.46875 2.203125q0.875 1.40625 0.90625 3.203125l-2.8125 0q0 -0.921875 -0.484375 -1.828125q-0.46875 -0.921875 -1.453125 -1.5q-0.96873474 -0.578125 -2.4374847 -0.578125q-1.828125 -0.03125 -3.0 0.9375q-1.171875 0.953125 -1.171875 2.65625q0 1.4375 0.8125 2.203125q0.828125 0.765625 2.296875 1.265625q1.46875 0.5 3.3906097 1.1406174q1.609375 0.5625 2.875 1.34375q1.28125 0.765625 2.0 1.984375q0.734375 1.203125 0.734375 3.09375q0 1.609375 -0.84375 3.03125q-0.828125 1.421875 -2.515625 2.328125q-1.671875 0.890625 -4.2031097 0.890625zm21.183517 0q-3.296875 0 -5.6875 -1.453125q-2.375 -1.46875 -3.6875 -4.078125q-1.3125 -2.609375 -1.3125 -6.0625q0 -3.4218674 1.3125 -6.0312424q1.3125 -2.609375 3.6875 -4.078125q2.390625 -1.46875 5.6875 -1.46875q3.84375 0 6.25 1.84375q2.421875 1.828125 3.09375 5.125l-2.96875 0q-0.515625 -2.078125 -2.109375 -3.34375q-1.578125 -1.265625 -4.265625 -1.265625q-2.390625 0 -4.1875 1.109375q-1.796875 1.109375 -2.78125 3.171875q-0.96875 2.0625 -0.96875 4.9374924q0 2.890625 0.96875 4.953125q0.984375 2.0625 2.78125 3.171875q1.796875 1.09375 4.1875 1.09375q2.6875 0 4.265625 -1.234375q1.59375 -1.234375 2.109375 -3.28125l2.96875 0q-0.671875 3.234375 -3.09375 5.0625q-2.40625 1.828125 -6.25 1.828125z" fill-rule="nonzero"/><path fill="#ff8a4f" d="m318.33334 86.21654l82.99213 0l0 85.38582l-82.99213 0z" fill-rule="evenodd"/><path fill="#000000" d="m348.56134 141.02007q-2.453125 0 -4.28125 -0.890625q-1.828125 -0.90625 -2.828125 -2.5q-0.984375 -1.609375 -0.984375 -3.71875l2.8125 0q0 1.3125 0.609375 2.421875q0.609375 1.09375 1.78125 1.75q1.171875 0.65625 2.890625 0.65625q2.28125 0 3.515625 -1.078125q1.25 -1.09375 1.25 -2.734375q0 -1.34375 -0.578125 -2.15625q-0.5625 -0.8125 -1.546875 -1.328125q-0.96875 -0.515625 -2.234375 -0.890625q-1.265625 -0.390625 -2.640625 -0.859375q-2.59375 -0.90625 -3.84375 -2.2343674q-1.25 -1.328125 -1.25 -3.46875q-0.03125 -1.796875 0.828125 -3.1875q0.875 -1.390625 2.453125 -2.171875q1.59375 -0.78125 3.765625 -0.78125q2.140625 0 3.71875 0.796875q1.59375 0.796875 2.46875 2.203125q0.875 1.40625 0.90625 3.203125l-2.8125 0q0 -0.921875 -0.484375 -1.828125q-0.46875 -0.921875 -1.453125 -1.5q-0.96875 -0.578125 -2.4375 -0.578125q-1.828125 -0.03125 -3.0 0.9375q-1.171875 0.953125 -1.171875 2.65625q0 1.4375 0.8125 2.203125q0.828125 0.765625 2.296875 1.265625q1.46875 0.5 3.390625 1.1406174q1.609375 0.5625 2.875 1.34375q1.28125 0.765625 2.0 1.984375q0.734375 1.203125 0.734375 3.09375q0 1.609375 -0.84375 3.03125q-0.828125 1.421875 -2.515625 2.328125q-1.671875 0.890625 -4.203125 0.890625zm21.183533 0q-3.296875 0 -5.6875 -1.453125q-2.375 -1.46875 -3.6875 -4.078125q-1.3125 -2.609375 -1.3125 -6.0625q0 -3.4218674 1.3125 -6.0312424q1.3125 -2.609375 3.6875 -4.078125q2.390625 -1.46875 5.6875 -1.46875q3.84375 0 6.25 1.84375q2.421875 1.828125 3.09375 5.125l-2.96875 0q-0.515625 -2.078125 -2.109375 -3.34375q-1.578125 -1.265625 -4.265625 -1.265625q-2.390625 0 -4.1875 1.109375q-1.796875 1.109375 -2.78125 3.171875q-0.96875 2.0625 -0.96875 4.9374924q0 2.890625 0.96875 4.953125q0.984375 2.0625 2.78125 3.171875q1.796875 1.09375 4.1875 1.09375q2.6875 0 4.265625 -1.234375q1.59375 -1.234375 2.109375 -3.28125l2.96875 0q-0.671875 3.234375 -3.09375 5.0625q-2.40625 1.828125 -6.25 1.828125z" fill-rule="nonzero"/><path fill="#49ebd0" d="m130.39633 179.03543l82.99213 0l0 85.38583l-82.99213 0z" fill-rule="evenodd"/><path fill="#000000" d="m160.3451 233.83897q-2.3125 0 -4.1875 -0.90625q-1.859375 -0.921875 -2.984375 -2.84375q-1.125 -1.921875 -1.125 -4.890625l0 -14.15625l2.6875 0l0 14.1875q0 3.265625 1.5625 4.734375q1.578125 1.46875 4.109375 1.46875q2.53125 0 4.0625 -1.46875q1.53125 -1.46875 1.53125 -4.734375l0 -14.1875l2.6875 0l0 14.15625q0 2.96875 -1.125 4.890625q-1.109375 1.921875 -3.0 2.84375q-1.890625 0.90625 -4.21875 0.90625zm22.7108 0q-3.296875 0 -5.6875 -1.453125q-2.375 -1.46875 -3.6875 -4.078125q-1.3125 -2.609375 -1.3125 -6.0625q0 -3.421875 1.3125 -6.03125q1.3125 -2.609375 3.6875 -4.078125q2.390625 -1.46875 5.6875 -1.46875q3.84375 0 6.25 1.84375q2.421875 1.828125 3.09375 5.125l-2.96875 0q-0.515625 -2.078125 -2.109375 -3.34375q-1.578125 -1.265625 -4.265625 -1.265625q-2.390625 0 -4.1875 1.109375q-1.796875 1.109375 -2.78125 3.171875q-0.96875 2.0625 -0.96875 4.9375q0 2.890625 0.96875 4.953125q0.984375 2.0625 2.78125 3.171875q1.796875 1.09375 4.1875 1.09375q2.6875 0 4.265625 -1.234375q1.59375 -1.234375 2.109375 -3.28125l2.96875 0q-0.671875 3.234375 -3.09375 5.0625q-2.40625 1.828125 -6.25 1.828125z" fill-rule="nonzero"/><path fill="#f9526b" d="m224.36482 179.03543l82.99214 0l0 85.38583l-82.99214 0z" fill-rule="evenodd"/><path fill="#000000" d="m254.31358 233.83897q-2.3125 0 -4.1875 -0.90625q-1.859375 -0.921875 -2.984375 -2.84375q-1.125 -1.921875 -1.125 -4.890625l0 -14.15625l2.6875 0l0 14.1875q0 3.265625 1.5625 4.734375q1.578125 1.46875 4.109375 1.46875q2.5312653 0 4.0625153 -1.46875q1.53125 -1.46875 1.53125 -4.734375l0 -14.1875l2.6875 0l0 14.15625q0 2.96875 -1.125 4.890625q-1.109375 1.921875 -3.0 2.84375q-1.890625 0.90625 -4.2187653 0.90625zm22.7108 0q-3.296875 0 -5.6875 -1.453125q-2.375 -1.46875 -3.6875 -4.078125q-1.3125 -2.609375 -1.3125 -6.0625q0 -3.421875 1.3125 -6.03125q1.3125 -2.609375 3.6875 -4.078125q2.390625 -1.46875 5.6875 -1.46875q3.84375 0 6.25 1.84375q2.421875 1.828125 3.09375 5.125l-2.96875 0q-0.515625 -2.078125 -2.109375 -3.34375q-1.578125 -1.265625 -4.265625 -1.265625q-2.390625 0 -4.1875 1.109375q-1.796875 1.109375 -2.78125 3.171875q-0.96875 2.0625 -0.96875 4.9375q0 2.890625 0.96875 4.953125q0.984375 2.0625 2.78125 3.171875q1.796875 1.09375 4.1875 1.09375q2.6875 0 4.265625 -1.234375q1.59375 -1.234375 2.109375 -3.28125l2.96875 0q-0.671875 3.234375 -3.09375 5.0625q-2.40625 1.828125 -6.25 1.828125z" fill-rule="nonzero"/><path fill="#ff8a4f" d="m318.33334 179.03543l82.99213 0l0 85.38583l-82.99213 0z" fill-rule="evenodd"/><path fill="#000000" d="m348.2821 233.83897q-2.3125 0 -4.1875 -0.90625q-1.859375 -0.921875 -2.984375 -2.84375q-1.125 -1.921875 -1.125 -4.890625l0 -14.15625l2.6875 0l0 14.1875q0 3.265625 1.5625 4.734375q1.578125 1.46875 4.109375 1.46875q2.53125 0 4.0625 -1.46875q1.53125 -1.46875 1.53125 -4.734375l0 -14.1875l2.6875 0l0 14.15625q0 2.96875 -1.125 4.890625q-1.109375 1.921875 -3.0 2.84375q-1.890625 0.90625 -4.21875 0.90625zm22.710785 0q-3.296875 0 -5.6875 -1.453125q-2.375 -1.46875 -3.6875 -4.078125q-1.3125 -2.609375 -1.3125 -6.0625q0 -3.421875 1.3125 -6.03125q1.3125 -2.609375 3.6875 -4.078125q2.390625 -1.46875 5.6875 -1.46875q3.84375 0 6.25 1.84375q2.421875 1.828125 3.09375 5.125l-2.96875 0q-0.515625 -2.078125 -2.109375 -3.34375q-1.578125 -1.265625 -4.265625 -1.265625q-2.390625 0 -4.1875 1.109375q-1.796875 1.109375 -2.78125 3.171875q-0.96875 2.0625 -0.96875 4.9375q0 2.890625 0.96875 4.953125q0.984375 2.0625 2.78125 3.171875q1.796875 1.09375 4.1875 1.09375q2.6875 0 4.265625 -1.234375q1.59375 -1.234375 2.109375 -3.28125l2.96875 0q-0.671875 3.234375 -3.09375 5.0625q-2.40625 1.828125 -6.25 1.828125z" fill-rule="nonzero"/><path fill="#000000" fill-opacity="0.0" d="m100.40682 64.62861l0 210.01575" fill-rule="evenodd"/><path stroke="#123693" stroke-width="1.0" stroke-linejoin="round" stroke-linecap="butt" d="m100.40682 64.62861l0 204.01575" fill-rule="evenodd"/><path fill="#123693" stroke="#123693" stroke-width="1.0" stroke-linecap="butt" d="m98.75509 268.64435l1.6517334 4.5381165l1.6517334 -4.5381165z" fill-rule="evenodd"/><path fill="#000000" fill-opacity="0.0" d="m98.708664 65.30708l322.01575 -0.69290924" fill-rule="evenodd"/><path stroke="#123693" stroke-width="1.0" stroke-linejoin="round" stroke-linecap="butt" d="m98.708664 65.30708l316.01575 -0.6800003" fill-rule="evenodd"/><path fill="#123693" stroke="#123693" stroke-width="1.0" stroke-linecap="butt" d="m414.72797 66.27882l4.534546 -1.661499l-4.5416565 -1.6419601z" fill-rule="evenodd"/><path fill="#000000" fill-opacity="0.0" d="m130.39633 -0.001312336l82.99213 0l0 64.62992l-82.99213 0z" fill-rule="evenodd"/><path fill="#33e0c8" d="m155.6404 26.918686l0 -11.765625l-3.890625 0l0 -1.296875l9.359375 0l0 1.296875l-3.90625 0l0 11.765625l-1.5625 0zm6.2272644 0l0 -9.25l1.421875 0l0.125 1.765625q0.4375 -0.90625 1.3125 -1.453125q0.875 -0.546875 2.171875 -0.546875l0 1.65625l-0.4375 0q-0.8125 0 -1.515625 0.296875q-0.6875 0.28125 -1.09375 0.96875q-0.40625 0.6875 -0.40625 1.890625l0 4.671875l-1.578125 0zm9.850342 0.21875q-1.15625 0 -1.921875 -0.390625q-0.765625 -0.390625 -1.140625 -1.03125q-0.359375 -0.65625 -0.359375 -1.421875q0 -1.421875 1.078125 -2.1875q1.078125 -0.765625 2.953125 -0.765625l2.5 0l0 -0.109375q0 -1.21875 -0.640625 -1.84375q-0.640625 -0.625 -1.703125 -0.625q-0.90625 0 -1.578125 0.46875q-0.65625 0.453125 -0.828125 1.328125l-1.59375 0q0.09375 -1.015625 0.671875 -1.703125q0.59375 -0.6875 1.46875 -1.046875q0.875 -0.375 1.859375 -0.375q1.953125 0 2.921875 1.046875q0.984375 1.03125 0.984375 2.75l0 5.6875l-1.40625 0l-0.09375 -1.65625q-0.390625 0.78125 -1.140625 1.328125q-0.75 0.546875 -2.03125 0.546875zm0.25 -1.3125q0.890625 0 1.53125 -0.46875q0.65625 -0.46875 0.984375 -1.21875q0.34375 -0.75 0.34375 -1.5625l0 -0.015625l-2.375 0q-1.375 0 -1.953125 0.46875q-0.5625 0.46875 -0.5625 1.1875q0 0.71875 0.53125 1.171875q0.53125 0.4375 1.5 0.4375zm7.718033 -10.21875q-0.46875 0 -0.78125 -0.296875q-0.296875 -0.3125 -0.296875 -0.78125q0 -0.4375 0.296875 -0.734375q0.3125 -0.3125 0.78125 -0.3125q0.453125 0 0.765625 0.3125q0.328125 0.296875 0.328125 0.734375q0 0.46875 -0.328125 0.78125q-0.3125 0.296875 -0.765625 0.296875zm-0.78125 11.3125l0 -9.25l1.5625 0l0 9.25l-1.5625 0zm4.286972 0l0 -9.25l1.421875 0l0.09375 1.65625q0.453125 -0.875 1.28125 -1.375q0.84375 -0.515625 1.90625 -0.515625q1.640625 0 2.625 1.0q0.984375 1.0 0.984375 3.078125l0 5.40625l-1.578125 0l0 -5.25q0 -2.890625 -2.375 -2.890625q-1.203125 0 -2.0 0.875q-0.78125 0.859375 -0.78125 2.46875l0 4.796875l-1.578125 0z" fill-rule="nonzero"/><path fill="#33e0c8" d="m147.3922 49.318684l-4.90625 -13.0625l1.703125 0l4.125 11.40625l4.15625 -11.40625l1.65625 0l-4.90625 13.0625l-1.828125 0zm9.384247 -11.3125q-0.46875 0 -0.78125 -0.296875q-0.296875 -0.3125 -0.296875 -0.78125q0 -0.4375 0.296875 -0.734375q0.3125 -0.3125 0.78125 -0.3125q0.453125 0 0.765625 0.3125q0.328125 0.296875 0.328125 0.734375q0 0.46875 -0.328125 0.78125q-0.3125 0.296875 -0.765625 0.296875zm-0.78125 11.3125l0 -9.25l1.5625 0l0 9.25l-1.5625 0zm8.490097 0.21875q-1.375 0 -2.421875 -0.625q-1.03125 -0.640625 -1.609375 -1.734375q-0.5625 -1.109375 -0.5625 -2.5q0 -1.40625 0.578125 -2.5q0.578125 -1.09375 1.609375 -1.71875q1.03125 -0.625 2.421875 -0.625q1.140625 0 2.015625 0.46875q0.875 0.46875 1.359375 1.3125l0 -5.734375l1.578125 0l0 13.4375l-1.421875 0l-0.15625 -1.53125q-0.4375 0.671875 -1.28125 1.21875q-0.84375 0.53125 -2.109375 0.53125zm0.171875 -1.359375q0.921875 0 1.640625 -0.4375q0.71875 -0.4375 1.125 -1.21875q0.40625 -0.78125 0.40625 -1.828125q0 -1.046875 -0.40625 -1.828125q-0.40625 -0.78125 -1.125 -1.21875q-0.71875 -0.4375 -1.640625 -0.4375q-0.921875 0 -1.640625 0.4375q-0.71875 0.4375 -1.125 1.21875q-0.390625 0.78125 -0.390625 1.828125q0 1.046875 0.390625 1.828125q0.40625 0.78125 1.125 1.21875q0.71875 0.4375 1.640625 0.4375zm11.5130005 1.359375q-1.328125 0 -2.359375 -0.59375q-1.015625 -0.609375 -1.609375 -1.6875q-0.59375 -1.09375 -0.59375 -2.5625q0 -1.453125 0.578125 -2.546875q0.578125 -1.09375 1.609375 -1.703125q1.046875 -0.609375 2.40625 -0.609375q1.34375 0 2.3125 0.609375q0.984375 0.609375 1.5 1.609375q0.53125 0.984375 0.53125 2.109375q0 0.21875 -0.015625 0.421875q0 0.203125 0 0.46875l-7.375 0q0.0625 1.0625 0.5 1.765625q0.4375 0.6875 1.09375 1.046875q0.671875 0.359375 1.421875 0.359375q0.96875 0 1.609375 -0.453125q0.65625 -0.453125 0.953125 -1.21875l1.5625 0q-0.375 1.296875 -1.4375 2.140625q-1.046875 0.84375 -2.6875 0.84375zm0 -8.375q-1.125 0 -2.0 0.6875q-0.859375 0.671875 -0.984375 1.984375l5.8125 0q-0.046875 -1.25 -0.859375 -1.953125q-0.796875 -0.71875 -1.96875 -0.71875zm10.662277 8.375q-1.296875 0 -2.34375 -0.59375q-1.046875 -0.59375 -1.65625 -1.6875q-0.609375 -1.09375 -0.609375 -2.5625q0 -1.46875 0.609375 -2.5625q0.625 -1.09375 1.671875 -1.6875q1.0625 -0.609375 2.375 -0.609375q1.296875 0 2.34375 0.609375q1.046875 0.59375 1.65625 1.6875q0.609375 1.09375 0.609375 2.5625q0 1.46875 -0.625 2.5625q-0.609375 1.09375 -1.671875 1.6875q-1.046875 0.59375 -2.359375 0.59375zm0 -1.34375q0.8125 0 1.5 -0.390625q0.6875 -0.390625 1.109375 -1.171875q0.4375 -0.78125 0.4375 -1.9375q0 -1.15625 -0.421875 -1.9375q-0.421875 -0.78125 -1.109375 -1.171875q-0.6875 -0.40625 -1.46875 -0.40625q-0.8125 0 -1.5 0.40625q-0.6875 0.390625 -1.125 1.171875q-0.421875 0.78125 -0.421875 1.9375q0 1.15625 0.421875 1.9375q0.4375 0.78125 1.109375 1.171875q0.6875 0.390625 1.46875 0.390625zm10.372635 1.34375q-1.65625 0 -2.765625 -0.828125q-1.09375 -0.84375 -1.28125 -2.28125l1.609375 0q0.140625 0.71875 0.765625 1.265625q0.625 0.53125 1.6875 0.53125q1.0 0 1.453125 -0.421875q0.46875 -0.421875 0.46875 -1.0q0 -0.84375 -0.609375 -1.125q-0.59375 -0.28125 -1.703125 -0.5q-0.734375 -0.15625 -1.484375 -0.421875q-0.75 -0.28125 -1.25 -0.796875q-0.5 -0.515625 -0.5 -1.359375q0 -1.203125 0.890625 -1.984375q0.90625 -0.78125 2.46875 -0.78125q1.46875 0 2.40625 0.75q0.9375 0.734375 1.09375 2.09375l-1.546875 0q-0.09375 -0.703125 -0.609375 -1.109375q-0.515625 -0.40625 -1.375 -0.40625q-0.828125 0 -1.296875 0.359375q-0.453125 0.359375 -0.453125 0.9375q0 0.546875 0.578125 0.875q0.59375 0.3125 1.609375 0.53125q0.859375 0.1875 1.625 0.46875q0.78125 0.265625 1.265625 0.796875q0.5 0.53125 0.5 1.53125q0.015625 1.25 -0.953125 2.0625q-0.953125 0.8125 -2.59375 0.8125z" fill-rule="nonzero"/><path fill="#000000" fill-opacity="0.0" d="m226.73491 -0.001312336l82.99211 0l0 64.62992l-82.99211 0z" fill-rule="evenodd"/><path fill="#f9526b" d="m260.7176 26.918686l-4.90625 -13.0625l1.703125 0l4.125 11.40625l4.15625 -11.40625l1.65625 0l-4.90625 13.0625l-1.828125 0zm10.463898 0.21875q-1.15625 0 -1.921875 -0.390625q-0.765625 -0.390625 -1.140625 -1.03125q-0.359375 -0.65625 -0.359375 -1.421875q0 -1.421875 1.078125 -2.1875q1.078125 -0.765625 2.953125 -0.765625l2.5 0l0 -0.109375q0 -1.21875 -0.640625 -1.84375q-0.640625 -0.625 -1.703125 -0.625q-0.90625 0 -1.578125 0.46875q-0.65625 0.453125 -0.828125 1.328125l-1.59375 0q0.09375 -1.015625 0.671875 -1.703125q0.59375 -0.6875 1.46875 -1.046875q0.875 -0.375 1.859375 -0.375q1.953125 0 2.921875 1.046875q0.984375 1.03125 0.984375 2.75l0 5.6875l-1.40625 0l-0.09375 -1.65625q-0.390625 0.78125 -1.140625 1.328125q-0.75 0.546875 -2.03125 0.546875zm0.25 -1.3125q0.890625 0 1.53125 -0.46875q0.65625 -0.46875 0.984375 -1.21875q0.34375 -0.75 0.34375 -1.5625l0 -0.015625l-2.375 0q-1.375 0 -1.953125 0.46875q-0.5625 0.46875 -0.5625 1.1875q0 0.71875 0.53125 1.171875q0.53125 0.4375 1.5 0.4375zm6.764923 1.09375l0 -13.4375l1.578125 0l0 13.4375l-1.578125 0z" fill-rule="nonzero"/><path fill="#f9526b" d="m243.73077 49.318684l-4.90625 -13.0625l1.703125 0l4.125 11.40625l4.15625 -11.40625l1.65625 0l-4.90625 13.0625l-1.828125 0zm9.384247 -11.3125q-0.46875 0 -0.78125 -0.296875q-0.296875 -0.3125 -0.296875 -0.78125q0 -0.4375 0.296875 -0.734375q0.3125 -0.3125 0.78125 -0.3125q0.453125 0 0.765625 0.3125q0.328125 0.296875 0.328125 0.734375q0 0.46875 -0.328125 0.78125q-0.3125 0.296875 -0.765625 0.296875zm-0.78125 11.3125l0 -9.25l1.5625 0l0 9.25l-1.5625 0zm8.490112 0.21875q-1.375 0 -2.421875 -0.625q-1.03125 -0.640625 -1.609375 -1.734375q-0.5625 -1.109375 -0.5625 -2.5q0 -1.40625 0.578125 -2.5q0.578125 -1.09375 1.609375 -1.71875q1.03125 -0.625 2.421875 -0.625q1.140625 0 2.015625 0.46875q0.875 0.46875 1.359375 1.3125l0 -5.734375l1.578125 0l0 13.4375l-1.421875 0l-0.15625 -1.53125q-0.4375 0.671875 -1.28125 1.21875q-0.84375 0.53125 -2.109375 0.53125zm0.171875 -1.359375q0.921875 0 1.640625 -0.4375q0.71875 -0.4375 1.125 -1.21875q0.40625 -0.78125 0.40625 -1.828125q0 -1.046875 -0.40625 -1.828125q-0.40625 -0.78125 -1.125 -1.21875q-0.71875 -0.4375 -1.640625 -0.4375q-0.921875 0 -1.640625 0.4375q-0.71875 0.4375 -1.125 1.21875q-0.390625 0.78125 -0.390625 1.828125q0 1.046875 0.390625 1.828125q0.40625 0.78125 1.125 1.21875q0.71875 0.4375 1.640625 0.4375zm11.5130005 1.359375q-1.328125 0 -2.359375 -0.59375q-1.015625 -0.609375 -1.609375 -1.6875q-0.59375 -1.09375 -0.59375 -2.5625q0 -1.453125 0.578125 -2.546875q0.578125 -1.09375 1.609375 -1.703125q1.046875 -0.609375 2.40625 -0.609375q1.34375 0 2.3125 0.609375q0.984375 0.609375 1.5 1.609375q0.53125 0.984375 0.53125 2.109375q0 0.21875 -0.015625 0.421875q0 0.203125 0 0.46875l-7.375 0q0.0625 1.0625 0.5 1.765625q0.4375 0.6875 1.09375 1.046875q0.671875 0.359375 1.421875 0.359375q0.96875 0 1.609375 -0.453125q0.65625 -0.453125 0.953125 -1.21875l1.5625 0q-0.375 1.296875 -1.4375 2.140625q-1.046875 0.84375 -2.6875 0.84375zm0 -8.375q-1.125 0 -2.0 0.6875q-0.859375 0.671875 -0.984375 1.984375l5.8125 0q-0.046875 -1.25 -0.859375 -1.953125q-0.796875 -0.71875 -1.96875 -0.71875zm10.662262 8.375q-1.296875 0 -2.34375 -0.59375q-1.046875 -0.59375 -1.65625 -1.6875q-0.609375 -1.09375 -0.609375 -2.5625q0 -1.46875 0.609375 -2.5625q0.625 -1.09375 1.671875 -1.6875q1.0625 -0.609375 2.375 -0.609375q1.296875 0 2.34375 0.609375q1.046875 0.59375 1.65625 1.6875q0.609375 1.09375 0.609375 2.5625q0 1.46875 -0.625 2.5625q-0.609375 1.09375 -1.671875 1.6875q-1.046875 0.59375 -2.359375 0.59375zm0 -1.34375q0.8125 0 1.5 -0.390625q0.6875 -0.390625 1.109375 -1.171875q0.4375 -0.78125 0.4375 -1.9375q0 -1.15625 -0.421875 -1.9375q-0.421875 -0.78125 -1.109375 -1.171875q-0.6875 -0.40625 -1.46875 -0.40625q-0.8125 0 -1.5 0.40625q-0.6875 0.390625 -1.125 1.171875q-0.421875 0.78125 -0.421875 1.9375q0 1.15625 0.421875 1.9375q0.4375 0.78125 1.109375 1.171875q0.6875 0.390625 1.46875 0.390625zm10.37265 1.34375q-1.65625 0 -2.765625 -0.828125q-1.09375 -0.84375 -1.28125 -2.28125l1.609375 0q0.140625 0.71875 0.765625 1.265625q0.625 0.53125 1.6875 0.53125q1.0 0 1.453125 -0.421875q0.46875 -0.421875 0.46875 -1.0q0 -0.84375 -0.609375 -1.125q-0.59375 -0.28125 -1.703125 -0.5q-0.734375 -0.15625 -1.484375 -0.421875q-0.75 -0.28125 -1.25 -0.796875q-0.5 -0.515625 -0.5 -1.359375q0 -1.203125 0.890625 -1.984375q0.90625 -0.78125 2.46875 -0.78125q1.46875 0 2.40625 0.75q0.9375 0.734375 1.09375 2.09375l-1.546875 0q-0.09375 -0.703125 -0.609375 -1.109375q-0.515625 -0.40625 -1.375 -0.40625q-0.828125 0 -1.296875 0.359375q-0.453125 0.359375 -0.453125 0.9375q0 0.546875 0.578125 0.875q0.59375 0.3125 1.609375 0.53125q0.859375 0.1875 1.625 0.46875q0.78125 0.265625 1.265625 0.796875q0.5 0.53125 0.5 1.53125q0.015625 1.25 -0.953125 2.0625q-0.953125 0.8125 -2.59375 0.8125z" fill-rule="nonzero"/><path fill="#000000" fill-opacity="0.0" d="m318.33334 -0.001312336l82.99213 0l0 64.62992l-82.99213 0z" fill-rule="evenodd"/><path fill="#ff5f19" d="m346.5067 26.918686l0 -11.765625l-3.890625 0l0 -1.296875l9.359375 0l0 1.296875l-3.90625 0l0 11.765625l-1.5625 0zm9.783142 0.21875q-1.328125 0 -2.359375 -0.59375q-1.015625 -0.609375 -1.609375 -1.6875q-0.59375 -1.09375 -0.59375 -2.5625q0 -1.453125 0.578125 -2.546875q0.578125 -1.09375 1.609375 -1.703125q1.046875 -0.609375 2.40625 -0.609375q1.34375 0 2.3125 0.609375q0.984375 0.609375 1.5 1.609375q0.53125 0.984375 0.53125 2.109375q0 0.21875 -0.015625 0.421875q0 0.203125 0 0.46875l-7.375 0q0.0625 1.0625 0.5 1.765625q0.4375 0.6875 1.09375 1.046875q0.671875 0.359375 1.421875 0.359375q0.96875 0 1.609375 -0.453125q0.65625 -0.453125 0.953125 -1.21875l1.5625 0q-0.375 1.296875 -1.4375 2.140625q-1.046875 0.84375 -2.6875 0.84375zm0 -8.375q-1.125 0 -2.0 0.6875q-0.859375 0.671875 -0.984375 1.984375l5.8125 0q-0.046875 -1.25 -0.859375 -1.953125q-0.796875 -0.71875 -1.96875 -0.71875zm9.9904175 8.375q-1.65625 0 -2.765625 -0.828125q-1.09375 -0.84375 -1.28125 -2.28125l1.609375 0q0.140625 0.71875 0.765625 1.265625q0.625 0.53125 1.6875 0.53125q1.0 0 1.453125 -0.421875q0.46875 -0.421875 0.46875 -1.0q0 -0.84375 -0.609375 -1.125q-0.59375 -0.28125 -1.703125 -0.5q-0.734375 -0.15625 -1.484375 -0.421875q-0.75 -0.28125 -1.25 -0.796875q-0.5 -0.515625 -0.5 -1.359375q0 -1.203125 0.890625 -1.984375q0.90625 -0.78125 2.46875 -0.78125q1.46875 0 2.40625 0.75q0.9375 0.734375 1.09375 2.09375l-1.546875 0q-0.09375 -0.703125 -0.609375 -1.109375q-0.515625 -0.40625 -1.375 -0.40625q-0.828125 0 -1.296875 0.359375q-0.453125 0.359375 -0.453125 0.9375q0 0.546875 0.578125 0.875q0.59375 0.3125 1.609375 0.53125q0.859375 0.1875 1.625 0.46875q0.78125 0.265625 1.265625 0.796875q0.5 0.53125 0.5 1.53125q0.015625 1.25 -0.953125 2.0625q-0.953125 0.8125 -2.59375 0.8125zm9.026825 -0.21875q-1.265625 0 -2.0 -0.609375q-0.71875 -0.625 -0.71875 -2.21875l0 -5.09375l-1.609375 0l0 -1.328125l1.609375 0l0.203125 -2.21875l1.359375 0l0 2.21875l2.734375 0l0 1.328125l-2.734375 0l0 5.09375q0 0.875 0.359375 1.1875q0.359375 0.296875 1.25 0.296875l0.96875 0l0 1.34375l-1.421875 0z" fill-rule="nonzero"/><path fill="#ff5f19" d="m335.3292 49.318684l-4.90625 -13.0625l1.703125 0l4.125 11.40625l4.15625 -11.40625l1.65625 0l-4.90625 13.0625l-1.828125 0zm9.384247 -11.3125q-0.46875 0 -0.78125 -0.296875q-0.296875 -0.3125 -0.296875 -0.78125q0 -0.4375 0.296875 -0.734375q0.3125 -0.3125 0.78125 -0.3125q0.453125 0 0.765625 0.3125q0.328125 0.296875 0.328125 0.734375q0 0.46875 -0.328125 0.78125q-0.3125 0.296875 -0.765625 0.296875zm-0.78125 11.3125l0 -9.25l1.5625 0l0 9.25l-1.5625 0zm8.490112 0.21875q-1.375 0 -2.421875 -0.625q-1.03125 -0.640625 -1.609375 -1.734375q-0.5625 -1.109375 -0.5625 -2.5q0 -1.40625 0.578125 -2.5q0.578125 -1.09375 1.609375 -1.71875q1.03125 -0.625 2.421875 -0.625q1.140625 0 2.015625 0.46875q0.875 0.46875 1.359375 1.3125l0 -5.734375l1.578125 0l0 13.4375l-1.421875 0l-0.15625 -1.53125q-0.4375 0.671875 -1.28125 1.21875q-0.84375 0.53125 -2.109375 0.53125zm0.171875 -1.359375q0.921875 0 1.640625 -0.4375q0.71875 -0.4375 1.125 -1.21875q0.40625 -0.78125 0.40625 -1.828125q0 -1.046875 -0.40625 -1.828125q-0.40625 -0.78125 -1.125 -1.21875q-0.71875 -0.4375 -1.640625 -0.4375q-0.921875 0 -1.640625 0.4375q-0.71875 0.4375 -1.125 1.21875q-0.390625 0.78125 -0.390625 1.828125q0 1.046875 0.390625 1.828125q0.40625 0.78125 1.125 1.21875q0.71875 0.4375 1.640625 0.4375zm11.5130005 1.359375q-1.328125 0 -2.359375 -0.59375q-1.015625 -0.609375 -1.609375 -1.6875q-0.59375 -1.09375 -0.59375 -2.5625q0 -1.453125 0.578125 -2.546875q0.578125 -1.09375 1.609375 -1.703125q1.046875 -0.609375 2.40625 -0.609375q1.34375 0 2.3125 0.609375q0.984375 0.609375 1.5 1.609375q0.53125 0.984375 0.53125 2.109375q0 0.21875 -0.015625 0.421875q0 0.203125 0 0.46875l-7.375 0q0.0625 1.0625 0.5 1.765625q0.4375 0.6875 1.09375 1.046875q0.671875 0.359375 1.421875 0.359375q0.96875 0 1.609375 -0.453125q0.65625 -0.453125 0.953125 -1.21875l1.5625 0q-0.375 1.296875 -1.4375 2.140625q-1.046875 0.84375 -2.6875 0.84375zm0 -8.375q-1.125 0 -2.0 0.6875q-0.859375 0.671875 -0.984375 1.984375l5.8125 0q-0.046875 -1.25 -0.859375 -1.953125q-0.796875 -0.71875 -1.96875 -0.71875zm10.662262 8.375q-1.296875 0 -2.34375 -0.59375q-1.046875 -0.59375 -1.65625 -1.6875q-0.609375 -1.09375 -0.609375 -2.5625q0 -1.46875 0.609375 -2.5625q0.625 -1.09375 1.671875 -1.6875q1.0625 -0.609375 2.375 -0.609375q1.296875 0 2.34375 0.609375q1.046875 0.59375 1.65625 1.6875q0.609375 1.09375 0.609375 2.5625q0 1.46875 -0.625 2.5625q-0.609375 1.09375 -1.671875 1.6875q-1.046875 0.59375 -2.359375 0.59375zm0 -1.34375q0.8125 0 1.5 -0.390625q0.6875 -0.390625 1.109375 -1.171875q0.4375 -0.78125 0.4375 -1.9375q0 -1.15625 -0.421875 -1.9375q-0.421875 -0.78125 -1.109375 -1.171875q-0.6875 -0.40625 -1.46875 -0.40625q-0.8125 0 -1.5 0.40625q-0.6875 0.390625 -1.125 1.171875q-0.421875 0.78125 -0.421875 1.9375q0 1.15625 0.421875 1.9375q0.4375 0.78125 1.109375 1.171875q0.6875 0.390625 1.46875 0.390625zm10.37265 1.34375q-1.65625 0 -2.765625 -0.828125q-1.09375 -0.84375 -1.28125 -2.28125l1.609375 0q0.140625 0.71875 0.765625 1.265625q0.625 0.53125 1.6875 0.53125q1.0 0 1.453125 -0.421875q0.46875 -0.421875 0.46875 -1.0q0 -0.84375 -0.609375 -1.125q-0.59375 -0.28125 -1.703125 -0.5q-0.734375 -0.15625 -1.484375 -0.421875q-0.75 -0.28125 -1.25 -0.796875q-0.5 -0.515625 -0.5 -1.359375q0 -1.203125 0.890625 -1.984375q0.90625 -0.78125 2.46875 -0.78125q1.46875 0 2.40625 0.75q0.9375 0.734375 1.09375 2.09375l-1.546875 0q-0.09375 -0.703125 -0.609375 -1.109375q-0.515625 -0.40625 -1.375 -0.40625q-0.828125 0 -1.296875 0.359375q-0.453125 0.359375 -0.453125 0.9375q0 0.546875 0.578125 0.875q0.59375 0.3125 1.609375 0.53125q0.859375 0.1875 1.625 0.46875q0.78125 0.265625 1.265625 0.796875q0.5 0.53125 0.5 1.53125q0.015625 1.25 -0.953125 2.0625q-0.953125 0.8125 -2.59375 0.8125z" fill-rule="nonzero"/><path fill="#000000" fill-opacity="0.0" d="m0 86.30315l89.57481 0l0 87.27559l-89.57481 0z" fill-rule="evenodd"/><path fill="#000000" d="m29.001797 113.441895q-1.4375 0 -2.546875 -0.484375q-1.09375 -0.5 -1.734375 -1.421875q-0.625 -0.921875 -0.65625 -2.25l2.53125 0q0.03125 0.921875 0.65625 1.546875q0.625 0.625 1.71875 0.625q0.953125 0 1.515625 -0.453125q0.5625 -0.46875 0.5625 -1.234375q0 -0.796875 -0.5 -1.25q-0.484375 -0.453125 -1.3125 -0.71875q-0.8125 -0.28125 -1.75 -0.609375q-1.515625 -0.515625 -2.3125 -1.328125q-0.78125 -0.828125 -0.78125 -2.1875q-0.03125 -1.15625 0.53125 -1.984375q0.578125 -0.84375 1.5625 -1.296875q1.0 -0.453125 2.28125 -0.453125q1.3125 0 2.3125 0.46875q1.0 0.46875 1.5625 1.3125q0.5625 0.828125 0.609375 1.984375l-2.5625 0q-0.015625 -0.6875 -0.53125 -1.21875q-0.515625 -0.53125 -1.421875 -0.53125q-0.78125 -0.015625 -1.3125 0.390625q-0.53125 0.390625 -0.53125 1.15625q0 0.65625 0.40625 1.046875q0.40625 0.375 1.109375 0.640625q0.71875 0.25 1.625 0.546875q0.984375 0.34375 1.78125 0.796875q0.796875 0.4375 1.28125 1.171875q0.484375 0.734375 0.484375 1.890625q0 1.03125 -0.53125 1.90625q-0.515625 0.875 -1.546875 1.40625q-1.015625 0.53125 -2.5 0.53125z" fill-rule="nonzero"/><path fill="#000000" d="m39.858334 113.441895q-1.328125 0 -2.359375 -0.59375q-1.015625 -0.609375 -1.609375 -1.6875q-0.59375 -1.09375 -0.59375 -2.5625q0 -1.453125 0.578125 -2.546875q0.578125 -1.09375 1.609375 -1.703125q1.046875 -0.609375 2.40625 -0.609375q1.34375 0 2.3125 0.609375q0.984375 0.609375 1.5 1.609375q0.53125 0.984375 0.53125 2.109375q0 0.21875 -0.015625 0.421875q0 0.203125 0 0.46875l-7.375 0q0.0625 1.0625 0.5 1.765625q0.4375 0.6875 1.09375 1.046875q0.671875 0.359375 1.421875 0.359375q0.96875 0 1.609375 -0.453125q0.65625 -0.453125 0.953125 -1.21875l1.5625 0q-0.375 1.296875 -1.4375 2.140625q-1.046875 0.84375 -2.6875 0.84375zm0 -8.375q-1.125 0 -2.0 0.6875q-0.859375 0.671875 -0.984375 1.984375l5.8125 0q-0.046875 -1.25 -0.859375 -1.953125q-0.796875 -0.71875 -1.96875 -0.71875zm10.615402 8.375q-1.328125 0 -2.359375 -0.59375q-1.015625 -0.609375 -1.609375 -1.6875q-0.59375 -1.09375 -0.59375 -2.5625q0 -1.453125 0.578125 -2.546875q0.578125 -1.09375 1.609375 -1.703125q1.046875 -0.609375 2.40625 -0.609375q1.34375 0 2.3125 0.609375q0.984375 0.609375 1.5 1.609375q0.53125 0.984375 0.53125 2.109375q0 0.21875 -0.015625 0.421875q0 0.203125 0 0.46875l-7.375 0q0.0625 1.0625 0.5 1.765625q0.4375 0.6875 1.09375 1.046875q0.671875 0.359375 1.421875 0.359375q0.96875 0 1.609375 -0.453125q0.65625 -0.453125 0.953125 -1.21875l1.5625 0q-0.375 1.296875 -1.4375 2.140625q-1.046875 0.84375 -2.6875 0.84375zm0 -8.375q-1.125 0 -2.0 0.6875q-0.859375 0.671875 -0.984375 1.984375l5.8125 0q-0.046875 -1.25 -0.859375 -1.953125q-0.796875 -0.71875 -1.96875 -0.71875zm6.443527 8.15625l0 -9.25l1.421875 0l0.09375 1.65625q0.453125 -0.875 1.28125 -1.375q0.84375 -0.515625 1.90625 -0.515625q1.640625 0 2.6250038 1.0q0.984375 1.0 0.984375 3.078125l0 5.40625l-1.5781288 0l0 -5.25q0 -2.890625 -2.375 -2.890625q-1.203125 0 -2.0 0.875q-0.78125 0.859375 -0.78125 2.46875l0 4.796875l-1.578125 0z" fill-rule="nonzero"/><path fill="#000000" d="m18.68282 135.84189q-1.984375 0 -3.40625 -0.84375q-1.40625 -0.84375 -2.171875 -2.359375q-0.765625 -1.53125 -0.765625 -3.53125q0 -1.9843674 0.765625 -3.5156174q0.765625 -1.53125 2.171875 -2.390625q1.421875 -0.859375 3.40625 -0.859375q2.34375 0 3.84375 1.171875q1.5 1.15625 1.875 3.265625l-2.625 0q-0.25 -1.0625 -1.046875 -1.671875q-0.78125 -0.609375 -2.09375 -0.609375q-1.8125 0 -2.84375 1.234375q-1.015625 1.234375 -1.015625 3.3749924q0 2.15625 1.015625 3.375q1.03125 1.21875 2.84375 1.21875q1.3125 0 2.09375 -0.5625q0.796875 -0.578125 1.046875 -1.578125l2.625 0q-0.375 2.015625 -1.875 3.15625q-1.5 1.125 -3.84375 1.125z" fill-rule="nonzero"/><path fill="#000000" d="m26.526234 135.62314l0 -13.437492l1.578125 0l0 13.437492l-1.578125 0zm7.219818 0.21875q-1.15625 0 -1.921875 -0.390625q-0.765625 -0.390625 -1.140625 -1.03125q-0.359375 -0.65625 -0.359375 -1.421875q0 -1.421875 1.078125 -2.1875q1.078125 -0.765625 2.953125 -0.765625l2.5 0l0 -0.109375q0 -1.21875 -0.640625 -1.84375q-0.640625 -0.6249924 -1.703125 -0.6249924q-0.90625 0 -1.578125 0.46875q-0.65625 0.45311737 -0.828125 1.3281174l-1.59375 0q0.09375 -1.015625 0.671875 -1.7031174q0.59375 -0.6875 1.46875 -1.046875q0.875 -0.375 1.859375 -0.375q1.953125 0 2.921875 1.046875q0.984375 1.0312424 0.984375 2.7499924l0 5.6875l-1.40625 0l-0.09375 -1.65625q-0.390625 0.78125 -1.140625 1.328125q-0.75 0.546875 -2.03125 0.546875zm0.25 -1.3125q0.890625 0 1.53125 -0.46875q0.65625 -0.46875 0.984375 -1.21875q0.34375 -0.75 0.34375 -1.5625l0 -0.015625l-2.375 0q-1.375 0 -1.953125 0.46875q-0.5625 0.46875 -0.5625 1.1875q0 0.71875 0.53125 1.171875q0.53125 0.4375 1.5 0.4375zm10.311783 1.3125q-1.65625 0 -2.765625 -0.828125q-1.09375 -0.84375 -1.28125 -2.28125l1.609375 0q0.140625 0.71875 0.765625 1.265625q0.625 0.53125 1.6875 0.53125q1.0 0 1.453125 -0.421875q0.46875 -0.421875 0.46875 -1.0q0 -0.84375 -0.609375 -1.125q-0.59375 -0.28125 -1.703125 -0.5q-0.734375 -0.15625 -1.484375 -0.421875q-0.75 -0.28125 -1.25 -0.796875q-0.5 -0.515625 -0.5 -1.359375q0 -1.2031174 0.890625 -1.9843674q0.90625 -0.78125 2.46875 -0.78125q1.46875 0 2.40625 0.75q0.9375 0.734375 1.09375 2.0937424l-1.546875 0q-0.09375 -0.703125 -0.609375 -1.1093674q-0.515625 -0.40625 -1.375 -0.40625q-0.828125 0 -1.296875 0.359375q-0.453125 0.35936737 -0.453125 0.9374924q0 0.546875 0.578125 0.875q0.59375 0.3125 1.609375 0.53125q0.859375 0.1875 1.625 0.46875q0.78125 0.265625 1.265625 0.796875q0.5 0.53125 0.5 1.53125q0.015625 1.25 -0.953125 2.0625q-0.953125 0.8125 -2.59375 0.8125zm9.328125 0q-1.65625 0 -2.765625 -0.828125q-1.09375 -0.84375 -1.28125 -2.28125l1.609375 0q0.140625 0.71875 0.765625 1.265625q0.625 0.53125 1.6875 0.53125q1.0 0 1.453125 -0.421875q0.46875 -0.421875 0.46875 -1.0q0 -0.84375 -0.609375 -1.125q-0.59375 -0.28125 -1.703125 -0.5q-0.734375 -0.15625 -1.484375 -0.421875q-0.75 -0.28125 -1.25 -0.796875q-0.5 -0.515625 -0.5 -1.359375q0 -1.2031174 0.890625 -1.9843674q0.90625 -0.78125 2.46875 -0.78125q1.46875 0 2.40625 0.75q0.9375 0.734375 1.09375 2.0937424l-1.546875 0q-0.09375 -0.703125 -0.609375 -1.1093674q-0.515625 -0.40625 -1.375 -0.40625q-0.828125 0 -1.296875 0.359375q-0.453125 0.35936737 -0.453125 0.9374924q0 0.546875 0.578125 0.875q0.59375 0.3125 1.609375 0.53125q0.859375 0.1875 1.625 0.46875q0.78125 0.265625 1.265625 0.796875q0.5 0.53125 0.5 1.53125q0.015625 1.25 -0.953125 2.0625q-0.953125 0.8125 -2.59375 0.8125zm9.953125 0q-1.328125 0 -2.359375 -0.59375q-1.015625 -0.609375 -1.609375 -1.6875q-0.59375 -1.09375 -0.59375 -2.5625q0 -1.453125 0.578125 -2.546875q0.578125 -1.0937424 1.609375 -1.7031174q1.046875 -0.609375 2.40625 -0.609375q1.3437462 0 2.3124962 0.609375q0.984375 0.609375 1.5 1.6093674q0.53125 0.984375 0.53125 2.109375q0 0.21875 -0.015625 0.421875q0 0.203125 0 0.46875l-7.374996 0q0.0625 1.0625 0.5 1.765625q0.4375 0.6875 1.09375 1.046875q0.671875 0.359375 1.421875 0.359375q0.9687462 0 1.6093712 -0.453125q0.65625 -0.453125 0.953125 -1.21875l1.5625 0q-0.375 1.296875 -1.4375 2.140625q-1.046875 0.84375 -2.6874962 0.84375zm0 -8.374992q-1.125 0 -2.0 0.6874924q-0.859375 0.671875 -0.984375 1.984375l5.812496 0q-0.046875 -1.25 -0.859375 -1.953125q-0.796875 -0.7187424 -1.9687462 -0.7187424zm9.990398 8.374992q-1.65625 0 -2.765625 -0.828125q-1.09375 -0.84375 -1.28125 -2.28125l1.609375 0q0.140625 0.71875 0.765625 1.265625q0.625 0.53125 1.6875 0.53125q1.0 0 1.453125 -0.421875q0.46875 -0.421875 0.46875 -1.0q0 -0.84375 -0.609375 -1.125q-0.59375 -0.28125 -1.703125 -0.5q-0.734375 -0.15625 -1.484375 -0.421875q-0.75 -0.28125 -1.25 -0.796875q-0.5 -0.515625 -0.5 -1.359375q0 -1.2031174 0.890625 -1.9843674q0.90625 -0.78125 2.46875 -0.78125q1.46875 0 2.40625 0.75q0.9375 0.734375 1.09375 2.0937424l-1.546875 0q-0.09375 -0.703125 -0.609375 -1.1093674q-0.515625 -0.40625 -1.375 -0.40625q-0.828125 0 -1.296875 0.359375q-0.453125 0.35936737 -0.453125 0.9374924q0 0.546875 0.578125 0.875q0.59375 0.3125 1.609375 0.53125q0.859375 0.1875 1.625 0.46875q0.78125 0.265625 1.265625 0.796875q0.5 0.53125 0.5 1.53125q0.015625 1.25 -0.953125 2.0625q-0.953125 0.8125 -2.59375 0.8125z" fill-rule="nonzero"/><path fill="#000000" d="m26.111057 160.72627q-1.0 -0.96875 -1.859375 -2.3125q-0.859375 -1.328125 -1.375 -2.984375q-0.515625 -1.671875 -0.515625 -3.625q0 -1.9375 0.515625 -3.609375q0.515625 -1.671875 1.375 -3.0q0.859375 -1.328125 1.859375 -2.296875l1.609375 0l0 0.140625q-1.71875 1.6875 -2.765625 3.9375q-1.03125 2.234375 -1.03125 4.828125q0 2.59375 1.046875 4.84375q1.046875 2.25 2.75 3.9375l0 0.140625l-1.609375 0zm8.1432495 -2.484375q-1.34375 0 -2.34375 -0.484375q-0.984375 -0.484375 -1.578125 -1.328125q-0.578125 -0.84375 -0.71875 -1.9375l1.53125 0q0.234375 1.09375 1.046875 1.75q0.828125 0.65625 2.078125 0.65625q0.921875 0 1.59375 -0.4375q0.671875 -0.4375 1.03125 -1.171875q0.375 -0.75 0.375 -1.671875q0 -1.453125 -0.828125 -2.34375q-0.8125 -0.90625 -2.125 -0.90625q-1.078125 0 -1.84375 0.5q-0.765625 0.484375 -1.125 1.265625l-1.484375 0l1.125 -7.171875l6.84375 0l0 1.359375l-5.640625 0l-0.765625 3.984375q0.453125 -0.546875 1.234375 -0.890625q0.796875 -0.359375 1.828125 -0.359375q1.28125 0 2.234375 0.59375q0.96875 0.59375 1.515625 1.625q0.546875 1.015625 0.546875 2.328125q0 1.25 -0.53125 2.3125q-0.53125 1.0625 -1.5625 1.703125q-1.015625 0.625 -2.4375 0.625zm6.444046 -0.21875l0 -1.09375q1.328125 -1.046875 2.515625 -2.125q1.1875 -1.078125 2.109375 -2.109375q0.921875 -1.046875 1.453125 -2.046875q0.53125 -1.015625 0.53125 -1.953125q0 -0.6875 -0.234375 -1.28125q-0.234375 -0.609375 -0.765625 -0.96875q-0.515625 -0.359375 -1.40625 -0.359375q-0.859375 0 -1.4375 0.390625q-0.578125 0.375 -0.875 1.015625q-0.28125 0.625 -0.28125 1.359375l-1.515625 0q0 -1.296875 0.53125 -2.21875q0.546875 -0.921875 1.484375 -1.40625q0.9375 -0.484375 2.109375 -0.484375q1.734375 0 2.84375 0.984375q1.109375 0.96875 1.109375 2.90625q0 1.15625 -0.578125 2.296875q-0.578125 1.125 -1.46875 2.1875q-0.890625 1.046875 -1.921875 1.96875q-1.015625 0.90625 -1.890625 1.625l6.3125 0l0 1.3125l-8.625 0zm15.000336 0.21875q-1.234375 0 -2.109375 -0.484375q-0.875 -0.484375 -1.390625 -1.296875q-0.515625 -0.8125 -0.625 -1.796875l1.453125 0q0.1875 1.0625 0.890625 1.640625q0.71875 0.578125 1.796875 0.578125q1.5 0 2.484375 -1.390625q0.984375 -1.390625 1.0625 -4.328125q-0.4375 0.875 -1.421875 1.515625q-0.984375 0.640625 -2.359375 0.640625q-1.109375 0 -2.09375 -0.515625q-0.984375 -0.53125 -1.609375 -1.46875q-0.609375 -0.9375 -0.609375 -2.21875q0 -1.09375 0.546875 -2.09375q0.546875 -1.015625 1.546875 -1.640625q1.015625 -0.640625 2.421875 -0.640625q1.421875 0 2.390625 0.53125q0.96875 0.53125 1.546875 1.4375q0.59375 0.890625 0.859375 2.0q0.28125 1.109375 0.28125 2.265625q0 2.15625 -0.609375 3.796875q-0.59375 1.625 -1.71875 2.546875q-1.125 0.921875 -2.734375 0.921875zm0.09375 -6.28125q0.875 0 1.5625 -0.390625q0.703125 -0.40625 1.109375 -1.078125q0.40625 -0.671875 0.40625 -1.46875q0 -0.828125 -0.40625 -1.484375q-0.40625 -0.671875 -1.109375 -1.046875q-0.6875 -0.375 -1.5625 -0.375q-0.875 0 -1.5625 0.375q-0.6875 0.375 -1.078125 1.046875q-0.390625 0.65625 -0.390625 1.515625q0 1.3125 0.859375 2.109375q0.875 0.796875 2.171875 0.796875zm6.059311 8.765625l0 -0.140625q1.703125 -1.6875 2.7499962 -3.9375q1.0625 -2.25 1.0625 -4.84375q0 -2.59375 -1.046875 -4.828125q-1.0468712 -2.25 -2.7343712 -3.9375l0 -0.140625l1.578125 0q1.0312462 0.96875 1.8749962 2.296875q0.84375 1.328125 1.359375 3.0q0.515625 1.671875 0.515625 3.609375q0 1.953125 -0.515625 3.625q-0.515625 1.65625 -1.359375 2.984375q-0.84375 1.34375 -1.8749962 2.3125l-1.609375 0z" fill-rule="nonzero"/><path fill="#000000" fill-opacity="0.0" d="m0 179.03543l89.57481 0l0 87.275604l-89.57481 0z" fill-rule="evenodd"/><path fill="#000000" d="m18.796612 206.17418q-1.4375 0 -2.59375 -0.5625q-1.15625 -0.578125 -1.84375 -1.734375q-0.6875 -1.15625 -0.6875 -2.921875l0 -8.0625l2.390625 0l0 8.078125q0 1.53125 0.734375 2.28125q0.75 0.75 2.046875 0.75q1.296875 0 2.03125 -0.75q0.75 -0.75 0.75 -2.28125l0 -8.078125l2.390625 0l0 8.0625q0 1.765625 -0.71875 2.921875q-0.703125 1.15625 -1.890625 1.734375q-1.171875 0.5625 -2.609375 0.5625z" fill-rule="nonzero"/><path fill="#000000" d="m26.470272 205.95543l0 -9.25l1.421875 0l0.09375 1.65625q0.453125 -0.875 1.28125 -1.375q0.84375 -0.515625 1.90625 -0.515625q1.640625 0 2.625 1.0q0.984375 1.0 0.984375 3.078125l0 5.40625l-1.578125 0l0 -5.25q0 -2.890625 -2.375 -2.890625q-1.203125 0 -2.0 0.875q-0.78125 0.859375 -0.78125 2.46875l0 4.796875l-1.578125 0zm14.218246 0.21875q-1.65625 0 -2.765625 -0.828125q-1.09375 -0.84375 -1.28125 -2.28125l1.609375 0q0.140625 0.71875 0.765625 1.265625q0.625 0.53125 1.6875 0.53125q1.0 0 1.453125 -0.421875q0.46875 -0.421875 0.46875 -1.0q0 -0.84375 -0.609375 -1.125q-0.59375 -0.28125 -1.703125 -0.5q-0.734375 -0.15625 -1.484375 -0.421875q-0.75 -0.28125 -1.25 -0.796875q-0.5 -0.515625 -0.5 -1.359375q0 -1.203125 0.890625 -1.984375q0.90625 -0.78125 2.46875 -0.78125q1.46875 0 2.40625 0.75q0.9375 0.734375 1.09375 2.09375l-1.546875 0q-0.09375 -0.703125 -0.609375 -1.109375q-0.515625 -0.40625 -1.375 -0.40625q-0.828125 0 -1.296875 0.359375q-0.453125 0.359375 -0.453125 0.9375q0 0.546875 0.578125 0.875q0.59375 0.3125 1.609375 0.53125q0.859375 0.1875 1.625 0.46875q0.78125 0.265625 1.265625 0.796875q0.5 0.53125 0.5 1.53125q0.015625 1.25 -0.953125 2.0625q-0.953125 0.8125 -2.59375 0.8125zm9.953125 0q-1.328125 0 -2.359375 -0.59375q-1.015625 -0.609375 -1.609375 -1.6875q-0.59375 -1.09375 -0.59375 -2.5625q0 -1.453125 0.578125 -2.546875q0.578125 -1.09375 1.609375 -1.703125q1.046875 -0.609375 2.40625 -0.609375q1.34375 0 2.3125 0.609375q0.984375 0.609375 1.5 1.609375q0.53125 0.984375 0.53125 2.109375q0 0.21875 -0.015625 0.421875q0 0.203125 0 0.46875l-7.375 0q0.0625 1.0625 0.5 1.765625q0.4375 0.6875 1.09375 1.046875q0.671875 0.359375 1.421875 0.359375q0.96875 0 1.609375 -0.453125q0.65625 -0.453125 0.953125 -1.21875l1.5625 0q-0.375 1.296875 -1.4375 2.140625q-1.046875 0.84375 -2.6875 0.84375zm0 -8.375q-1.125 0 -2.0 0.6875q-0.859375 0.671875 -0.984375 1.984375l5.8125 0q-0.046875 -1.25 -0.859375 -1.953125q-0.796875 -0.71875 -1.96875 -0.71875zm10.615402 8.375q-1.328125 0 -2.359375 -0.59375q-1.015625 -0.609375 -1.609375 -1.6875q-0.59375 -1.09375 -0.59375 -2.5625q0 -1.453125 0.578125 -2.546875q0.578125 -1.09375 1.609375 -1.703125q1.046875 -0.609375 2.40625 -0.609375q1.34375 0 2.3125 0.609375q0.9843788 0.609375 1.5000038 1.609375q0.53125 0.984375 0.53125 2.109375q0 0.21875 -0.015625 0.421875q0 0.203125 0 0.46875l-7.375004 0q0.0625 1.0625 0.5 1.765625q0.4375 0.6875 1.09375 1.046875q0.671875 0.359375 1.421875 0.359375q0.96875 0 1.609375 -0.453125q0.65625 -0.453125 0.953125 -1.21875l1.5625038 0q-0.375 1.296875 -1.4375038 2.140625q-1.046875 0.84375 -2.6875 0.84375zm0 -8.375q-1.125 0 -2.0 0.6875q-0.859375 0.671875 -0.984375 1.984375l5.812504 0q-0.046875 -1.25 -0.8593788 -1.953125q-0.796875 -0.71875 -1.96875 -0.71875zm6.443531 8.15625l0 -9.25l1.421875 0l0.09375 1.65625q0.453125 -0.875 1.28125 -1.375q0.84375 -0.515625 1.90625 -0.515625q1.640625 0 2.625 1.0q0.984375 1.0 0.984375 3.078125l0 5.40625l-1.578125 0l0 -5.25q0 -2.890625 -2.375 -2.890625q-1.203125 0 -2.0 0.875q-0.78125 0.859375 -0.78125 2.46875l0 4.796875l-1.578125 0z" fill-rule="nonzero"/><path fill="#000000" d="m18.68282 228.57417q-1.984375 0 -3.40625 -0.84375q-1.40625 -0.84375 -2.171875 -2.359375q-0.765625 -1.53125 -0.765625 -3.53125q0 -1.984375 0.765625 -3.515625q0.765625 -1.53125 2.171875 -2.390625q1.421875 -0.859375 3.40625 -0.859375q2.34375 0 3.84375 1.171875q1.5 1.15625 1.875 3.265625l-2.625 0q-0.25 -1.0625 -1.046875 -1.671875q-0.78125 -0.609375 -2.09375 -0.609375q-1.8125 0 -2.84375 1.234375q-1.015625 1.234375 -1.015625 3.375q0 2.15625 1.015625 3.375q1.03125 1.21875 2.84375 1.21875q1.3125 0 2.09375 -0.5625q0.796875 -0.578125 1.046875 -1.578125l2.625 0q-0.375 2.015625 -1.875 3.15625q-1.5 1.125 -3.84375 1.125z" fill-rule="nonzero"/><path fill="#000000" d="m26.526234 228.35542l0 -13.4375l1.578125 0l0 13.4375l-1.578125 0zm7.219818 0.21875q-1.15625 0 -1.921875 -0.390625q-0.765625 -0.390625 -1.140625 -1.03125q-0.359375 -0.65625 -0.359375 -1.421875q0 -1.421875 1.078125 -2.1875q1.078125 -0.765625 2.953125 -0.765625l2.5 0l0 -0.109375q0 -1.21875 -0.640625 -1.84375q-0.640625 -0.625 -1.703125 -0.625q-0.90625 0 -1.578125 0.46875q-0.65625 0.453125 -0.828125 1.328125l-1.59375 0q0.09375 -1.015625 0.671875 -1.703125q0.59375 -0.6875 1.46875 -1.046875q0.875 -0.375 1.859375 -0.375q1.953125 0 2.921875 1.046875q0.984375 1.03125 0.984375 2.75l0 5.6875l-1.40625 0l-0.09375 -1.65625q-0.390625 0.78125 -1.140625 1.328125q-0.75 0.546875 -2.03125 0.546875zm0.25 -1.3125q0.890625 0 1.53125 -0.46875q0.65625 -0.46875 0.984375 -1.21875q0.34375 -0.75 0.34375 -1.5625l0 -0.015625l-2.375 0q-1.375 0 -1.953125 0.46875q-0.5625 0.46875 -0.5625 1.1875q0 0.71875 0.53125 1.171875q0.53125 0.4375 1.5 0.4375zm10.311783 1.3125q-1.65625 0 -2.765625 -0.828125q-1.09375 -0.84375 -1.28125 -2.28125l1.609375 0q0.140625 0.71875 0.765625 1.265625q0.625 0.53125 1.6875 0.53125q1.0 0 1.453125 -0.421875q0.46875 -0.421875 0.46875 -1.0q0 -0.84375 -0.609375 -1.125q-0.59375 -0.28125 -1.703125 -0.5q-0.734375 -0.15625 -1.484375 -0.421875q-0.75 -0.28125 -1.25 -0.796875q-0.5 -0.515625 -0.5 -1.359375q0 -1.203125 0.890625 -1.984375q0.90625 -0.78125 2.46875 -0.78125q1.46875 0 2.40625 0.75q0.9375 0.734375 1.09375 2.09375l-1.546875 0q-0.09375 -0.703125 -0.609375 -1.109375q-0.515625 -0.40625 -1.375 -0.40625q-0.828125 0 -1.296875 0.359375q-0.453125 0.359375 -0.453125 0.9375q0 0.546875 0.578125 0.875q0.59375 0.3125 1.609375 0.53125q0.859375 0.1875 1.625 0.46875q0.78125 0.265625 1.265625 0.796875q0.5 0.53125 0.5 1.53125q0.015625 1.25 -0.953125 2.0625q-0.953125 0.8125 -2.59375 0.8125zm9.328125 0q-1.65625 0 -2.765625 -0.828125q-1.09375 -0.84375 -1.28125 -2.28125l1.609375 0q0.140625 0.71875 0.765625 1.265625q0.625 0.53125 1.6875 0.53125q1.0 0 1.453125 -0.421875q0.46875 -0.421875 0.46875 -1.0q0 -0.84375 -0.609375 -1.125q-0.59375 -0.28125 -1.703125 -0.5q-0.734375 -0.15625 -1.484375 -0.421875q-0.75 -0.28125 -1.25 -0.796875q-0.5 -0.515625 -0.5 -1.359375q0 -1.203125 0.890625 -1.984375q0.90625 -0.78125 2.46875 -0.78125q1.46875 0 2.40625 0.75q0.9375 0.734375 1.09375 2.09375l-1.546875 0q-0.09375 -0.703125 -0.609375 -1.109375q-0.515625 -0.40625 -1.375 -0.40625q-0.828125 0 -1.296875 0.359375q-0.453125 0.359375 -0.453125 0.9375q0 0.546875 0.578125 0.875q0.59375 0.3125 1.609375 0.53125q0.859375 0.1875 1.625 0.46875q0.78125 0.265625 1.265625 0.796875q0.5 0.53125 0.5 1.53125q0.015625 1.25 -0.953125 2.0625q-0.953125 0.8125 -2.59375 0.8125zm9.953125 0q-1.328125 0 -2.359375 -0.59375q-1.015625 -0.609375 -1.609375 -1.6875q-0.59375 -1.09375 -0.59375 -2.5625q0 -1.453125 0.578125 -2.546875q0.578125 -1.09375 1.609375 -1.703125q1.046875 -0.609375 2.40625 -0.609375q1.3437462 0 2.3124962 0.609375q0.984375 0.609375 1.5 1.609375q0.53125 0.984375 0.53125 2.109375q0 0.21875 -0.015625 0.421875q0 0.203125 0 0.46875l-7.374996 0q0.0625 1.0625 0.5 1.765625q0.4375 0.6875 1.09375 1.046875q0.671875 0.359375 1.421875 0.359375q0.9687462 0 1.6093712 -0.453125q0.65625 -0.453125 0.953125 -1.21875l1.5625 0q-0.375 1.296875 -1.4375 2.140625q-1.046875 0.84375 -2.6874962 0.84375zm0 -8.375q-1.125 0 -2.0 0.6875q-0.859375 0.671875 -0.984375 1.984375l5.812496 0q-0.046875 -1.25 -0.859375 -1.953125q-0.796875 -0.71875 -1.9687462 -0.71875zm9.990398 8.375q-1.65625 0 -2.765625 -0.828125q-1.09375 -0.84375 -1.28125 -2.28125l1.609375 0q0.140625 0.71875 0.765625 1.265625q0.625 0.53125 1.6875 0.53125q1.0 0 1.453125 -0.421875q0.46875 -0.421875 0.46875 -1.0q0 -0.84375 -0.609375 -1.125q-0.59375 -0.28125 -1.703125 -0.5q-0.734375 -0.15625 -1.484375 -0.421875q-0.75 -0.28125 -1.25 -0.796875q-0.5 -0.515625 -0.5 -1.359375q0 -1.203125 0.890625 -1.984375q0.90625 -0.78125 2.46875 -0.78125q1.46875 0 2.40625 0.75q0.9375 0.734375 1.09375 2.09375l-1.546875 0q-0.09375 -0.703125 -0.609375 -1.109375q-0.515625 -0.40625 -1.375 -0.40625q-0.828125 0 -1.296875 0.359375q-0.453125 0.359375 -0.453125 0.9375q0 0.546875 0.578125 0.875q0.59375 0.3125 1.609375 0.53125q0.859375 0.1875 1.625 0.46875q0.78125 0.265625 1.265625 0.796875q0.5 0.53125 0.5 1.53125q0.015625 1.25 -0.953125 2.0625q-0.953125 0.8125 -2.59375 0.8125z" fill-rule="nonzero"/><path fill="#000000" d="m31.828869 253.45856q-1.0 -0.96875 -1.859375 -2.3125q-0.859375 -1.328125 -1.375 -2.984375q-0.515625 -1.671875 -0.515625 -3.625q0 -1.9375 0.515625 -3.609375q0.515625 -1.671875 1.375 -3.0q0.859375 -1.328125 1.859375 -2.296875l1.609375 0l0 0.140625q-1.71875 1.6875 -2.765625 3.9375q-1.03125 2.234375 -1.03125 4.828125q0 2.59375 1.046875 4.84375q1.046875 2.25 2.75 3.9375l0 0.140625l-1.609375 0zm4.9869995 -2.703125l0 -11.3125l-2.109375 0.46875l0 -1.078125l2.625 -1.140625l1.0625 0l0 13.0625l-1.578125 0zm5.431061 0l5.1875 -11.71875l-7.171875 0l0 -1.34375l8.765625 0l0 1.171875l-5.125 11.890625l-1.65625 0zm10.221573 0l0 -11.3125l-2.109375 0.46875l0 -1.078125l2.625 -1.140625l1.0625 0l0 13.0625l-1.578125 0zm3.6654358 2.703125l0 -0.140625q1.703125 -1.6875 2.75 -3.9375q1.0625 -2.25 1.0625 -4.84375q0 -2.59375 -1.046875 -4.828125q-1.046875 -2.25 -2.734375 -3.9375l0 -0.140625l1.578125 0q1.03125 0.96875 1.875 2.296875q0.84375 1.328125 1.359375 3.0q0.515625 1.671875 0.515625 3.609375q0 1.953125 -0.515625 3.625q-0.515625 1.65625 -1.359375 2.984375q-0.84375 1.34375 -1.875 2.3125l-1.609375 0z" fill-rule="nonzero"/></g></svg>